<?xml version="1.0" encoding="UTF-8" standalone="no"?>
<svg
   version="1.1"
   viewBox="0.00 0.00 500.00 500.00"
   id="svg391"
   sodipodi:docname="nuclear-boy (1).svg"
   inkscape:version="1.2.2 (b0a8486541, 2022-12-01)"
   xmlns:inkscape="http://www.inkscape.org/namespaces/inkscape"
   xmlns:sodipodi="http://sodipodi.sourceforge.net/DTD/sodipodi-0.dtd"
   xmlns="http://www.w3.org/2000/svg"
   xmlns:svg="http://www.w3.org/2000/svg">
  <defs
     id="defs395" />
  <sodipodi:namedview
     id="namedview393"
     pagecolor="#ffffff"
     bordercolor="#000000"
     borderopacity="0.25"
     inkscape:showpageshadow="2"
     inkscape:pageopacity="0.0"
     inkscape:pagecheckerboard="0"
     inkscape:deskcolor="#d1d1d1"
     showgrid="false"
     inkscape:zoom="1.13"
     inkscape:cx="249.55752"
     inkscape:cy="250"
     inkscape:window-width="1366"
     inkscape:window-height="768"
     inkscape:window-x="0"
     inkscape:window-y="0"
     inkscape:window-maximized="1"
     inkscape:current-layer="svg391" />
  <g
     stroke-width="2"
     fill="none"
     stroke-linecap="butt"
     id="g317"
     transform="matrix(1.2417164,0,0,1.2417164,-60.366734,-54.190403)">
    <path
       stroke="#71292a"
       vector-effect="non-scaling-stroke"
       d="m 249.5,82.29 c -10.04,-0.92 -19.63,-2.4 -30.23,-1.7 -14.93,0.99 -27.07,8.81 -20.55,25.41 a 1.47,1.47 0 0 0 2.79,-0.15 l 1.21,-4.41"
       id="path227" />
    <path
       stroke="#2f0f0e"
       vector-effect="non-scaling-stroke"
       d="m 202.72,101.44 c 31.48,18.91 68.46,23.88 103.07,10.98 a 0.34,0.34 0 0 1 0.37,0.55 q -2.64,2.86 -6.19,4.45 a 0.49,0.49 0 0 0 0.35,0.91 q 13.72,-4.72 20.33,-17.58 0.43,-0.84 -0.45,-0.47 -13.1,5.5 -27.23,7.01 a 0.43,0.42 -68.7 0 1 -0.32,-0.74 c 11.38,-10.04 13.46,-27.32 9.81,-41.35 a 0.35,0.34 -40.5 0 0 -0.65,-0.05 c -9.28,21.37 -31.69,19.04 -52.31,17.14"
       id="path229" />
    <path
       stroke="#9f3736"
       vector-effect="non-scaling-stroke"
       d="m 202.72,101.44 c 5.8,-20.1 30.11,-18.2 46.14,-18.22 q 0.52,0 0.64,-0.5 0.05,-0.21 0,-0.43"
       id="path231" />
    <path
       stroke="#2f0f0e"
       vector-effect="non-scaling-stroke"
       d="m 193.71,125.96 0.06,19.87 q 0,0.59 0.58,0.47 l 3.09,-0.63 q 0.63,-0.13 0.65,-0.78 c 0.46,-14.13 -0.03,-26.43 3.32,-34.87 q 0.21,-0.51 -0.13,-0.95 -3.9,-5.1 -10.54,-2.59 c -10.89,4.1 -8.12,16.86 2.33,18.72 a 0.78,0.77 5.4 0 1 0.64,0.76"
       id="path233" />
    <path
       stroke="#776150"
       vector-effect="non-scaling-stroke"
       d="m 254.36,158.68 c 1.03,-12.62 9.6,-14.68 20.56,-13.76 q 9.03,0.75 18.11,1.63 0.65,0.06 0.59,-0.59 l -1.64,-19.4 q -0.05,-0.53 -0.57,-0.45 -19.21,2.76 -38.06,0.77"
       id="path235" />
    <path
       stroke="#7f6957"
       vector-effect="non-scaling-stroke"
       d="m 253.35,126.88 c -15.96,-2.15 -30.16,-7.01 -45.08,-13.34 q -0.63,-0.26 -0.74,0.41 -2.37,15.67 -2.54,31.53 0,0.72 0.71,0.66 6.75,-0.57 13.76,-0.95 c 9.33,-0.51 14.54,-1.49 20.5,3.63 q 5.15,4.41 4.12,11.94 a 0.58,0.58 0 0 0 0.61,0.66 l 8.83,-0.46 q 0.62,-0.04 0.68,-0.65 l 0.16,-1.63"
       id="path237" />
    <path
       stroke="#f5c9a6"
       vector-effect="non-scaling-stroke"
       d="m 253.35,126.88 q 1.15,1.49 -2.16,1.69 -0.46,0.02 -0.36,0.47 c 0.99,4.5 0.8,8.81 1.08,13.4 q 0,0.11 0.08,0.18 0.14,0.13 0.25,0.27 0.22,0.29 0.23,0.65 l 0.36,14.01 q 0.01,0.48 0.48,0.58 0.76,0.17 1.05,0.55"
       id="path239" />
    <path
       stroke="#2f0f0e"
       vector-effect="non-scaling-stroke"
       d="m 301.45,146.01 4.42,0.09 a 1.06,1.06 0 0 0 1.08,-1.03 l 0.4,-18.72 a 2.13,1.88 1.2 0 0 -2.09,-1.92 l -2.28,-0.05 a 2.13,1.88 1.2 0 0 -2.17,1.83 l -0.39,18.72 a 1.06,1.06 0 0 0 1.03,1.08"
       id="path241" />
    <path
       stroke="#80671d"
       vector-effect="non-scaling-stroke"
       d="m 197.88,150 c -8.73,-0.36 -8.66,11.29 -5.74,16.65 q 0.34,0.63 0.44,-0.08 c 0.84,-6.1 0.17,-11.93 5.44,-16.15 q 0.49,-0.39 -0.14,-0.42"
       id="path243" />
    <path
       stroke="#80671d"
       vector-effect="non-scaling-stroke"
       d="m 306.58,167.9 c 1.2,-5.11 2.11,-17.44 -5.8,-17.77 a 0.25,0.25 0 0 0 -0.12,0.48 l 1.89,0.82 a 1.15,1.14 -82.9 0 1 0.67,0.87 l 2.38,15.56 a 0.5,0.5 0 0 0 0.98,0.04"
       id="path245" />
    <path
       stroke="#7f6957"
       vector-effect="non-scaling-stroke"
       d="m 236.98,159.72 c -0.11,-4.88 -3.31,-7.94 -8.23,-7.65 q -13.03,0.76 -25.33,2.23 a 2.36,2.35 -87.8 0 0 -2.03,1.89 q -2.33,11.82 -3.36,24.07 c -0.45,5.44 2.21,6.91 7.24,7.26 q 9.41,0.66 18.79,-0.08 c 6.58,-0.53 12.04,-2.68 12.73,-9.67 q 0.48,-4.86 0.19,-18.05"
       id="path247" />
    <path
       stroke="#776150"
       vector-effect="non-scaling-stroke"
       d="m 263.5,154.73 c -2.85,4.12 -1.46,17.29 -1.22,22.46 0.26,5.41 2.59,9.13 8.04,9.73 q 10.69,1.18 24.33,0.81 c 3.43,-0.09 5.95,-1.17 5.6,-5.01 q -0.51,-5.65 -3.82,-26.67 -0.08,-0.5 -0.57,-0.59 -12.1,-2.25 -24.24,-3.09 c -3.53,-0.25 -5.8,-1.01 -8.12,2.36"
       id="path249" />
    <path
       stroke="#7f6957"
       vector-effect="non-scaling-stroke"
       d="m 189.14,174.81 q -4.41,-1.88 -4.96,-6.65 a 0.77,0.76 -28.4 0 0 -1.35,-0.4 c -6.63,7.98 -0.7,23.08 9.14,25.43 q 0.6,0.14 0.46,-0.46 c -0.85,-3.61 -2.53,-7.04 -2.29,-10.81 q 0.17,-2.83 0.1,-5.5 a 1.82,1.81 -79.6 0 0 -1.1,-1.61"
       id="path251" />
    <path
       stroke="#776150"
       vector-effect="non-scaling-stroke"
       d="m 313.71,167.97 q -0.85,5.1 -5.27,7.8 a 0.98,0.96 -15.4 0 0 -0.47,0.81 c -0.12,5.73 -0.09,10.22 -2.22,15.64 a 0.75,0.74 87.2 0 0 1.03,0.94 q 11.94,-6.08 10.3,-19.66 c -0.29,-2.41 -1.22,-4.09 -2.91,-5.68 a 0.28,0.27 26.5 0 0 -0.46,0.15"
       id="path253" />
    <path
       stroke="#776150"
       vector-effect="non-scaling-stroke"
       d="m 250.15,238.55 7.49,-0.97"
       id="path255" />
    <path
       stroke="#7f6957"
       vector-effect="non-scaling-stroke"
       d="m 257.64,237.58 c 20.93,-3.3 38.03,-21.28 40.42,-41.91 q 0.05,-0.5 -0.44,-0.51 -9.7,-0.26 -19.43,-0.19 c -9.86,0.07 -16.36,-0.93 -21.17,-9.34 -2.6,-4.55 -2.43,-10.95 -2.87,-16.3 q -0.04,-0.48 -0.51,-0.47 l -8.42,0.17 q -0.63,0.01 -0.67,0.64 c -0.27,5.15 -0.07,12.93 -3,17.11 q -5.73,8.13 -16.48,8.33 -12.18,0.22 -24.41,-0.6 -0.5,-0.04 -0.34,0.44 0.23,0.74 0.4,2.05 c 3.2,25.47 24.81,40.66 49.43,41.55"
       id="path257" />
    <path
       stroke="#f5c9a6"
       vector-effect="non-scaling-stroke"
       d="m 257.64,237.58 c 1.12,-1.33 1.7,-2.36 3.42,-2.92 13.11,-4.22 25.68,-13.53 31.5,-26.19 1.24,-2.68 1.63,-6.14 3.12,-9.11 a 1.46,1.45 12 0 0 -1.37,-2.11 c -6.5,0.3 -12.94,0.2 -19.4,-0.56 -3.79,-0.44 -7.75,-0.02 -11.02,-1.86 q -4.46,-2.5 -7.28,-7.02 a 0.33,0.33 0 0 0 -0.61,0.18 v 0.49 q 0,0.42 -0.37,0.64 -1.5,0.89 -1.25,2.67 0.08,0.54 -0.13,1.04 l -2.58,6.32 q -0.06,0.16 0.1,0.19 l 0.36,0.06 a 0.19,0.19 0 0 1 0.14,0.26 q -2.32,5.47 -2.35,11.37 a 0.65,0.64 2.3 0 0 0.61,0.65 q 2.22,0.12 2.55,1.25"
       id="path259" />
    <path
       stroke="#7f6957"
       vector-effect="non-scaling-stroke"
       d="m 253.08,212.93 c -13.72,1.41 -22.68,-1.3 -32.49,-10.56 A 1.35,1.32 66.3 0 0 219.67,202 h -1.44 q -0.83,0 -0.54,0.78 3.73,10.07 13.79,12.97 c 17.85,5.13 37.33,6.83 46.97,-12.7"
       id="path261" />
    <path
       stroke="#f5c9a6"
       vector-effect="non-scaling-stroke"
       d="m 278.45,203.05 q 1.61,0.56 1.43,1.12 c -2.28,7.1 -8.79,12.53 -15.22,15.74 q -1.9,0.94 -5.49,0.38 a 1.41,1.36 -51.3 0 0 -0.76,0.1 l -3.64,1.58 a 1.11,1.1 -40.8 0 1 -1,-0.07 l -1.49,-0.91 a 0.95,0.94 88.9 0 0 -1.28,1.33 c 0.88,1.32 -0.05,2.78 -0.07,3.97 q -0.08,6.1 -0.78,12.26"
       id="path263" />
    <path
       stroke="#776150"
       vector-effect="non-scaling-stroke"
       d="m 278.45,203.05 q -3.63,-2.06 -7.84,2.82 c -5.08,5.9 -10.29,6.22 -17.53,7.06"
       id="path265" />
    <path
       stroke="#808080"
       vector-effect="non-scaling-stroke"
       d="m 243.18,256.45 c -7.61,-4.97 -13.97,-11.81 -21.55,-17.1 q -0.48,-0.34 -0.76,0.18 -2.02,3.75 0.03,7.07 c 4.39,7.13 10.45,12.95 19.15,22.08 q 0.37,0.39 0.53,-0.12 l 3.16,-10.58 q 0.3,-0.97 -0.56,-1.53"
       id="path267" />
    <path
       stroke="#686c70"
       vector-effect="non-scaling-stroke"
       d="m 270.06,255.06 c 4.39,-4.08 8.58,-9.5 6.73,-15.1 q -0.12,-0.39 -0.47,-0.17 c -4.01,2.5 -7.88,4.79 -11.68,7.83 q -5.77,4.61 -11.98,8.88 a 0.51,0.51 0 0 0 -0.11,0.74 q 3.84,4.82 5.67,10.69 0.18,0.58 0.56,0.11 7.77,-9.71 11.28,-12.98"
       id="path269" />
    <path
       stroke="#776150"
       vector-effect="non-scaling-stroke"
       d="m 262.04,245.27 c -11.86,1.16 -17.67,1.11 -29,-0.97 q -0.66,-0.12 -0.16,0.34 6.05,5.6 13.09,9.92 1.78,1.09 3.98,-0.39 9.12,-6.13 12.31,-8.3 a 0.33,0.33 0 0 0 -0.22,-0.6"
       id="path271" />
    <path
       stroke="#80671d"
       vector-effect="non-scaling-stroke"
       d="m 306.15,285.1 c 14.07,6.16 23.69,21.33 25.6,35.86 0.65,4.88 3.29,9.04 3.67,13.86 0.58,7.51 -1.65,13.99 -5.18,20.91 q -0.29,0.55 0.16,0.98 c 3.87,3.74 15.26,6.53 20.61,8.17 q 0.48,0.15 0.85,-0.19 1.9,-1.73 2.71,-3.48 c 10.52,-22.85 9.1,-48.41 -6.25,-68.39 -15.55,-20.23 -37.68,-33.5 -60.02,-45.76 a 0.54,0.53 -59.6 0 0 -0.71,0.19 q -3.18,5.08 -7.12,9.45 -12.54,13.91 -27.18,25.58 -1.92,1.53 -4.08,2.64 a 1.16,1.15 52.1 0 1 -1.31,-0.17 c -10.56,-9.44 -19.95,-17.1 -30.6,-28.8 q -3.79,-4.16 -6.61,-8.64 a 0.81,0.8 -32.9 0 0 -1.13,-0.24 c -16.99,11.41 -37.83,21.65 -52.53,37.34 -19.4,20.71 -24.79,45.93 -14.61,72.53 q 1.62,4.22 4.04,7.17 0.78,0.94 1.95,0.61 l 20.37,-5.69 q 0.49,-0.14 0.4,-0.65 c -5.04,-29.21 -5,-54.42 22.22,-72.42 a 0.71,0.71 0 0 1 1.07,0.79 c -10.37,34.76 -11,73.83 -10.67,106.82 q 0,0.61 0.57,0.84 c 10.59,4.18 24.98,5.46 35.55,6.29 q 41.7,3.24 83.02,-2.99 5.67,-0.86 11.96,-3.06 0.44,-0.16 0.47,-0.63 0.66,-11.62 -0.67,-23.18 a 1.04,1.04 0 0 0 -1.35,-0.88 q -10.65,3.29 -20.44,-1.9 -0.47,-0.25 -0.79,0.17 c -21.98,28.22 -61.22,30.6 -81.38,-1.24 -8.25,-13.02 -6.82,-28.21 -6.36,-43.89 q 0.23,-8.22 0.71,-16.43 c 0.26,-4.61 3.36,-6.6 7.84,-6.81 11.49,-0.54 23.81,-1.71 34.45,-1.73 q 22.49,-0.03 44.9,2.29 c 7.5,0.78 6.4,13.01 6.18,18.54 q -0.03,0.67 0.55,0.33 6.23,-3.54 13.33,-4.5 0.59,-0.08 0.53,-0.67 c -0.86,-9.07 -1.77,-19.81 -5.11,-28.64 q -0.25,-0.66 0.39,-0.38"
       id="path273" />
    <path
       stroke="#424041"
       vector-effect="non-scaling-stroke"
       d="m 247.19,273.56 q 3.23,1.49 5.13,-2.13 0.21,-0.39 0.13,-0.82 c -0.61,-3.56 -0.35,-9.09 -2.79,-11.88 a 1.32,1.32 0 0 0 -2.21,0.36 c -1.27,3.06 -4.38,12.58 -0.26,14.47"
       id="path275" />
    <path
       stroke="#161518"
       vector-effect="non-scaling-stroke"
       d="m 321.72,318.65 2.1,-0.61 a 0.22,0.22 0 0 0 0.14,-0.27 l -0.33,-1.16 a 12.25,1.3 73.8 0 0 -4.67,-11.4 h -0.02 a 12.25,1.3 73.8 0 0 2.17,12.13 l 0.34,1.16 a 0.22,0.22 0 0 0 0.27,0.15"
       id="path277" />
    <path
       stroke="#808080"
       vector-effect="non-scaling-stroke"
       d="m 288.25,308.15 q -21.03,-1.72 -40.61,-1.89 c -11.44,-0.1 -24.3,1.22 -36.46,1.81 q -0.65,0.03 -0.68,0.68 -0.52,11.07 -1.08,22.42 -0.5,10.09 0.85,18.1 c 3.4,20.17 21.1,34.73 41.7,33.24 13.38,-0.97 25.1,-8.64 32.45,-19.85 a 0.71,0.7 -46.4 0 0 -0.01,-0.8 c -8.81,-12.59 -5.77,-25.24 4.1,-36.15 a 1.12,1.11 -24 0 0 0.29,-0.75 l -0.15,-16.39 q -0.01,-0.39 -0.4,-0.42"
       id="path279" />
    <path
       stroke="#161518"
       vector-effect="non-scaling-stroke"
       d="m 174.86,353.31 c 0.27,-15.39 1.29,-30.63 5.09,-45.52 q 0.18,-0.72 -0.36,-0.21 -1.12,1.04 -1.82,2.43 c -7.38,14.48 -5.79,27.28 -4.69,42.8 q 0.09,1.2 0.38,1.35 1.37,0.68 1.4,-0.85"
       id="path281" />
    <path
       stroke="#686c70"
       vector-effect="non-scaling-stroke"
       d="m 286.28,345.03 q -0.8,7.61 4.4,12.83"
       id="path283" />
    <path
       stroke="#161518"
       vector-effect="non-scaling-stroke"
       d="m 290.68,357.86 q 1.01,3.62 4.82,5.33 c 4.93,2.21 12.23,0.9 17.29,-0.91 a 1.38,1.38 0 0 1 1.64,0.57 l 2.61,4.17 a 2.12,2.12 0 0 0 2.65,0.82 q 3.92,-1.72 6.56,-5.16 a 1.65,1.64 41.4 0 0 -0.14,-2.15 l -3.58,-3.65 a 0.86,0.86 0 0 1 -0.16,-0.97 c 5.24,-10.86 10.96,-19.96 -0.63,-29.42"
       id="path285" />
    <path
       stroke="#686c70"
       vector-effect="non-scaling-stroke"
       d="m 321.74,326.49 q -0.46,-0.13 -0.67,-0.66"
       id="path287" />
    <path
       stroke="#808080"
       vector-effect="non-scaling-stroke"
       d="m 321.07,325.83 c -12.99,-11.16 -35.08,3.86 -34.79,19.2"
       id="path289" />
    <path
       stroke="#e7ebef"
       vector-effect="non-scaling-stroke"
       d="m 321.07,325.83 q 0.08,1.89 -1.29,1.38 c -5.56,-2.04 -9.26,-1.38 -13.61,2.78 -7.06,6.76 -11.75,11.03 -19.89,15.04"
       id="path291" />
    <path
       stroke="#7c8087"
       vector-effect="non-scaling-stroke"
       d="m 321.74,326.49 c 3,12.59 -4.97,24.29 -15.23,30.77 q -7.13,4.5 -15.83,0.6"
       id="path293" />
    <path
       stroke="#776150"
       vector-effect="non-scaling-stroke"
       d="m 323.39,371.88 c -6.36,3.63 7.01,12.09 12.38,9.62 q 5.86,-2.69 9.95,-7.86 0.42,-0.53 -0.19,-0.81 l -14.35,-6.42 q -0.57,-0.25 -1.03,0.17 -4.27,3.89 -6.76,5.3"
       id="path295" />
    <path
       stroke="#776150"
       vector-effect="non-scaling-stroke"
       d="m 152.94,373.33 c 4.04,4.97 13.45,13.02 19.41,6.66 a 1.25,1.25 0 0 0 0.34,-0.83 l 0.38,-11.49 q 0.02,-0.73 -0.68,-0.53 l -19.18,5.34 q -0.79,0.22 -0.27,0.85"
       id="path297" />
    <path
       stroke="#424041"
       vector-effect="non-scaling-stroke"
       d="m 257.47,409.68 -2.63,0.5 q -0.65,0.12 -0.64,0.77 l 0.04,25.6 q 0,0.67 0.67,0.68 l 2.22,0.03"
       id="path299" />
    <path
       stroke="#161518"
       vector-effect="non-scaling-stroke"
       d="m 257.13,437.26 50.16,-0.79 a 0.65,0.65 0 0 0 0.62,-0.51 q 3.39,-15.45 4.44,-31.24 0.12,-1.81 -1.66,-1.42 c -17.43,3.79 -35.31,4.99 -53.22,6.38"
       id="path301" />
    <path
       stroke="#565458"
       vector-effect="non-scaling-stroke"
       d="m 257.13,437.26 0.34,-27.58"
       id="path303" />
    <path
       stroke="#161518"
       vector-effect="non-scaling-stroke"
       d="m 193.14,436.89 51.92,0.29 q 0.41,0 0.41,-0.41 l -0.14,-26.76 a 0.59,0.58 89.1 0 0 -0.6,-0.59 q -28.98,0.61 -57.7,-4.77"
       id="path305" />
    <path
       stroke="#424041"
       vector-effect="non-scaling-stroke"
       d="m 187.03,404.65 q -1.36,-0.61 -2.54,-0.62 -0.61,0 -0.56,0.61 0.89,11.82 3.3,25.61 c 0.63,3.59 1.18,7.29 5.91,6.64"
       id="path307" />
    <path
       stroke="#565458"
       vector-effect="non-scaling-stroke"
       d="m 187.03,404.65 c 2.12,10.21 2.63,20.54 6.11,32.24"
       id="path309" />
    <path
       stroke="#7f6957"
       vector-effect="non-scaling-stroke"
       d="m 221.16,175.29 a 1.87,1.87 0 0 1 -1.54,-2.31 q 1.72,-6.71 8.66,-5.6 0.51,0.08 0.45,-0.44 c -1.15,-10.68 -20.59,-4.58 -17.71,6.24 2.61,9.8 16.21,13.43 19.36,1.58 a 0.53,0.52 85.7 0 0 -0.71,-0.62 q -4.12,1.79 -8.51,1.15"
       id="path311" />
    <path
       stroke="#776150"
       vector-effect="non-scaling-stroke"
       d="m 269.42,166.34 q -0.7,1.01 0.51,0.83 6.04,-0.85 8.45,4.74 0.2,0.46 0.02,0.92 c -1.77,4.52 -6.16,2.83 -9.71,2.5 q -0.56,-0.06 -0.38,0.48 c 4.24,12.52 20.31,3.42 18.17,-6.68 q -1.55,-7.31 -9.38,-7.53 c -4.09,-0.12 -5.54,1.66 -7.68,4.74"
       id="path313" />
    <path
       stroke="#808080"
       vector-effect="non-scaling-stroke"
       d="m 240.15,351.33 q -1.65,0.84 -2.33,1.5 c -4.76,4.58 -11.59,9.2 -15.32,14.48 a 0.99,0.98 -42.1 0 0 -0.06,1.05 q 1.37,2.41 4.01,3.32 0.43,0.15 0.87,0.01 c 5.18,-1.77 11.17,-9.37 16.62,-15.11 q 0.39,-0.4 0.94,-0.39 l 9.34,0.2 a 0.94,0.87 65.9 0 1 0.6,0.26 q 5.99,5.82 11.86,11.8 c 2.96,3.02 6.11,4.65 8.94,0.32 q 0.3,-0.44 0.1,-0.94 -0.77,-1.96 -2.63,-3.69 -7.12,-6.63 -14.29,-13.35 -0.41,-0.38 -0.18,-0.89 2.37,-5.23 -0.59,-10.22 a 0.78,0.61 53.9 0 1 0.03,-0.87 l 19.18,-18.49 a 1.08,1.07 40.3 0 0 -0.14,-1.67 l -5.9,-3.93 a 0.83,0.83 0 0 0 -1.07,0.13 q -9.17,9.89 -16.05,19.23 -1.09,1.49 -2.63,1.08 -0.5,-0.14 -1.01,-0.11 l -4.8,0.27 q -0.54,0.03 -0.88,-0.38 -6.97,-8.4 -13.66,-17.03 -1.58,-2.04 -4.49,-3.43 a 0.84,0.82 -49 0 0 -0.85,0.07 q -3.06,2.18 -4.81,5.52 a 1.06,1.05 -55 0 0 0.22,1.28 l 18.62,16.88 a 1.03,1.03 0 0 1 0.28,1.08 q -1.87,5.69 0.37,11.22 0.22,0.54 -0.29,0.8"
       id="path315" />
  </g>
  <path
     fill="#010101"
     d="m 291.61019,239.25202 c 29.56527,16.72592 64.04774,35.25232 85.76536,62.09823 15.57112,19.2466 24.87157,42.61571 20.79875,67.57421 q -5.64982,34.70597 -33.4891,56.27459 c -7.26404,5.63739 -15.02476,6.07198 -22.82274,1.49005 a 1.4528082,1.440391 17.4 0 0 -2.17301,1.12997 l -3.78723,44.30444 q -0.13659,1.65148 1.51489,1.85016 c 6.77977,0.81953 30.27305,2.64485 32.57022,10.61666 a 1.5521455,1.5397283 51.1 0 1 -0.11175,1.11755 c -3.6134,6.87911 -19.15969,8.14567 -26.57273,8.90311 q -46.50228,4.76819 -93.24049,5.24004 c -29.83844,0.29802 -59.99973,-1.94949 -89.68917,-4.79303 q -18.97343,-1.82532 -37.57434,-6.0099 -4.42051,-1.00579 -7.06536,-4.50743 a 0.95612162,0.96853878 46 0 1 0.0249,-1.17963 q 2.63244,-3.22846 6.7301,-4.23425 18.43949,-4.5571 36.8914,-5.37664 a 1.4776425,1.4776425 0 0 0 1.39072,-1.7384 q -3.56373,-20.31447 -4.97929,-40.90214 -0.17383,-2.52068 -2.60759,-1.85015 c -12.15641,3.4023 -20.6125,-3.27814 -29.25484,-12.18124 -19.78054,-20.4014 -26.721739,-48.36486 -22.01563,-76.29106 3.92381,-23.2946 20.96016,-45.4344 39.33757,-59.54029 q 30.07437,-23.12077 64.84243,-41.48575 a 1.514894,1.514894 0 0 0 0.16142,-2.58277 c -13.5347,-9.38738 -21.38235,-21.49412 -25.59177,-37.21424 -0.67054,-2.49586 -1.60182,-3.87415 -4.1225,-4.95445 q -21.02226,-9.07695 -22.10255,-31.88728 -0.58361,-12.14398 10.6415,-18.02972 0.53394,-0.28559 0.53394,-0.90645 0.0249,-17.29711 0.0249,-34.56938 c 0,-6.90394 -4.79303,-11.038867 -5.4263,-17.557878 -1.11755,-11.622459 6.46934,-17.992472 16.80042,-20.873255 q 0.65811,-0.186252 0.49669,-0.844358 c -6.17137,-25.231682 21.17123,-34.097538 40.28124,-32.595061 q 24.67291,1.924661 49.34582,4.333591 c 12.13156,1.179631 26.80865,-1.328637 35.71175,-11.498295 7.52481,-8.617511 5.00412,-16.527245 4.01075,-26.5230614 q -0.0993,-0.9809564 0.69536,-0.3849321 c 19.64395,14.7515915 27.25568,38.3317855 18.26565,61.5891275 a 1.0306246,1.0306246 0 0 0 1.27896,1.353479 q 9.93374,-3.265713 18.86168,-8.729269 a 0.57118954,0.57118954 0 0 1 0.85678,0.447019 c 1.40315,16.949427 -4.35842,29.403841 -14.52808,42.354953 a 1.5769798,1.5397283 64.7 0 0 -0.33526,0.96853 l -0.28559,41.58508 q 0,0.65812 0.50909,0.93129 c 12.39233,6.53143 12.92627,21.14644 7.93458,32.63231 -3.34023,7.6738 -8.26984,15.1986 -16.71351,17.40886 -3.1167,0.81954 -4.37084,1.44039 -5.26488,4.76819 q -6.4445,23.92788 -26.62239,38.55529 a 1.0182074,1.0182074 0 0 0 0.0993,1.71358 z M 249.44151,47.990438 c -12.46684,-1.142379 -24.3749,-2.980119 -37.53709,-2.110917 -18.53882,1.229299 -33.61326,10.939521 -25.51727,31.55201 a 1.8253231,1.8253231 0 0 0 3.46439,-0.186252 l 1.50247,-5.475974 c 39.08924,23.480861 85.00791,29.652185 127.98371,13.634043 a 0.42218357,0.42218357 0 0 1 0.45944,0.682946 q -3.27814,3.551315 -7.68623,5.525644 a 0.60844103,0.60844103 0 0 0 0.4346,1.129961 q 17.03635,-5.860905 25.24409,-21.829378 0.53394,-1.043036 -0.55877,-0.583608 -16.26649,6.829442 -33.81193,8.704433 a 0.52152088,0.53393804 21.3 0 1 -0.39735,-0.918868 c 14.13073,-12.466829 16.7135,-33.923692 12.18124,-51.344972 a 0.42218357,0.43460074 49.5 0 0 -0.80711,-0.06208 c -11.52314,26.535476 -39.35,23.642278 -64.95419,21.283016 z m -69.27536,54.225752 0.0744,24.67291 q 0,0.73261 0.72021,0.5836 l 3.83689,-0.78228 q 0.78229,-0.16142 0.80713,-0.96854 c 0.57118,-17.54545 -0.0373,-32.818558 4.12249,-43.298643 q 0.26076,-0.633277 -0.16142,-1.179629 -4.8427,-6.332759 -13.08769,-3.216055 c -13.52229,5.091045 -10.08274,20.93534 2.8932,23.244937 a 0.96853878,0.95612162 5.4 0 1 0.7947,0.9437 z m 75.3101,40.62897 c 1.27896,-15.67047 11.92048,-18.2284 25.52968,-17.08602 q 11.2127,0.93128 22.48749,2.024 0.80712,0.0744 0.73261,-0.73262 l -2.03641,-24.0893 q -0.0621,-0.65811 -0.70778,-0.55877 -23.85338,3.42714 -47.25973,0.95613 c -19.81779,-2.66969 -37.45016,-8.704436 -55.97657,-16.564499 q -0.78228,-0.322857 -0.91887,0.509098 -2.94287,19.457691 -3.15396,39.151321 0,0.89404 0.88161,0.81953 8.38159,-0.70778 17.08602,-1.17963 c 11.58522,-0.63328 18.05456,-1.85015 25.45519,4.50743 q 6.39485,5.47597 5.11588,14.82609 a 0.7201955,0.7201955 0 0 0 0.75744,0.81954 l 10.96436,-0.57119 q 0.76985,-0.0497 0.84436,-0.80712 z m 58.47242,-15.73256 5.48839,0.11176 a 1.3162194,1.3162194 0 0 0 1.34105,-1.27897 l 0.49669,-23.24493 a 2.6448559,2.3344268 1.2 0 0 -2.59519,-2.38409 l -2.83111,-0.0621 a 2.6448559,2.3344268 1.2 0 0 -2.69453,2.27234 l -0.48427,23.24493 a 1.3162194,1.3162194 0 0 0 1.27897,1.34105 z m -128.60456,4.95445 c -10.84019,-0.44701 -10.75327,14.01898 -7.12746,20.67458 q 0.42219,0.78229 0.54635,-0.0993 c 1.04305,-7.57447 0.2111,-14.81368 6.75495,-20.05372 q 0.60843,-0.48427 -0.17384,-0.52152 z m 134.97456,22.22673 c 1.49006,-6.34518 2.62002,-21.65553 -7.20194,-22.0653 a 0.31042909,0.31042909 0 0 0 -0.14901,0.59602 l 2.34684,1.01821 a 1.4155567,1.4279738 7.1 0 1 0.83195,1.0803 l 2.95529,19.3211 a 0.6208582,0.6208582 0 0 0 1.21687,0.0497 z m -86.42345,-10.15724 c -0.13659,-6.05957 -4.11008,-9.85923 -10.21933,-9.49913 q -16.17957,0.9437 -31.45268,2.76903 a 2.9180336,2.9304507 2.2 0 0 -2.52068,2.34684 q -2.8932,14.67709 -4.17217,29.88811 c -0.55877,6.75494 2.7442,8.58026 8.99002,9.01486 q 11.68456,0.81954 23.33186,-0.0993 c 8.17049,-0.65811 14.95026,-3.3278 15.80705,-12.00739 q 0.59602,-6.03474 0.23593,-22.41299 z m 32.93031,-6.19617 c -3.53888,5.11588 -1.8129,21.46928 -1.51489,27.88895 0.32285,6.71769 3.21605,11.33687 9.98341,12.0819 q 13.27394,1.46523 30.21095,1.00579 c 4.25909,-0.11175 7.38821,-1.4528 6.95361,-6.22099 q -0.63328,-7.01571 -4.74336,-33.11658 -0.0993,-0.62086 -0.70778,-0.73261 -15.02476,-2.79386 -30.0992,-3.83691 c -4.38325,-0.31043 -7.20195,-1.25413 -10.08274,2.93045 z m -92.33403,24.93367 q -5.47597,-2.33443 -6.15891,-8.25742 a 0.94370445,0.95612162 61.6 0 0 -1.67631,-0.49668 c -8.23258,9.90889 -0.8692,28.65881 11.34928,31.57685 q 0.74503,0.17383 0.57119,-0.5712 c -1.05546,-4.48259 -3.14154,-8.74167 -2.84353,-13.42295 q 0.2111,-3.51406 0.12417,-6.82944 a 2.2475066,2.2599239 10.4 0 0 -1.36589,-1.99916 z m 154.68061,-8.49334 q -1.05546,6.33275 -6.54384,9.68539 a 1.1920478,1.2168821 74.6 0 0 -0.5836,1.00579 c -0.14901,7.11503 -0.11176,12.69033 -2.75662,19.42044 a 0.93128729,0.91887012 87.2 0 0 1.27897,1.16721 q 14.8261,-7.54963 12.78967,-24.41214 c -0.36009,-2.99254 -1.51489,-5.07862 -3.61338,-7.05295 a 0.34768059,0.33526342 26.5 0 0 -0.5712,0.18626 z m -78.92349,87.64034 9.30046,-1.20446 c 25.98912,-4.09767 47.22247,-26.42373 50.19017,-52.04033 q 0.0621,-0.62087 -0.54635,-0.63328 -12.04465,-0.32285 -24.12656,-0.23593 c -12.24332,0.0869 -20.31447,-1.15479 -26.28713,-11.59763 -3.22846,-5.6498 -3.01737,-13.59679 -3.56372,-20.23998 q -0.0497,-0.59602 -0.63328,-0.58361 l -10.45525,0.21109 q -0.78229,0.0124 -0.83196,0.7947 c -0.33526,6.39485 -0.0869,16.0554 -3.72514,21.24577 q -7.11503,10.09516 -20.46348,10.34351 -15.12411,0.27317 -30.31031,-0.74503 -0.62085,-0.0497 -0.42218,0.54635 0.2856,0.91887 0.49669,2.54552 c 3.97349,31.62652 30.80698,50.48819 61.37804,51.59331 z m -8.65476,22.22672 c -9.44946,-6.17132 -17.34678,-14.66467 -26.75899,-21.23335 q -0.59602,-0.42218 -0.94371,0.22351 -2.50826,4.65644 0.0373,8.77894 c 5.45114,8.85343 12.97594,16.08023 23.77887,27.4171 q 0.45943,0.48427 0.6581,-0.14901 l 3.92383,-13.13736 q 0.37252,-1.20446 -0.69536,-1.89983 z m 33.37733,-1.72598 c 5.45114,-5.06621 10.65393,-11.79631 8.35676,-18.74992 q -0.14901,-0.48427 -0.58361,-0.21109 c -4.97928,3.10429 -9.78472,5.94783 -14.50325,9.72264 q -7.16471,5.72431 -14.87576,11.02644 a 0.63327536,0.63327536 0 0 0 -0.13659,0.91887 q 4.76819,5.98508 7.04053,13.27395 0.22351,0.7202 0.69536,0.13659 9.64814,-12.05707 14.00656,-16.11748 z m -9.95856,-12.1564 c -14.72676,1.44039 -21.94113,1.3783 -36.00978,-1.20447 q -0.81952,-0.14901 -0.19867,0.42218 7.51238,6.95361 16.25407,12.31784 2.21025,1.35346 4.94203,-0.48428 11.32445,-7.61172 15.28552,-10.30624 a 0.40976641,0.40976641 0 0 0 -0.27317,-0.74503 z m 54.7721,49.45755 c 17.47095,7.64899 29.41627,26.48582 31.78794,44.52796 0.80713,6.05957 4.08526,11.22511 4.55711,17.21019 0.72019,9.32529 -2.04884,17.37161 -6.4321,25.96429 q -0.36009,0.68294 0.19868,1.21688 c 4.80544,4.64402 18.9486,8.10841 25.59177,10.14482 q 0.59603,0.18626 1.05547,-0.23592 2.35926,-2.14818 3.36505,-4.32117 c 13.06285,-28.37322 11.29961,-60.1115 -7.76073,-84.92099 -19.30869,-25.11992 -46.78787,-41.5975 -74.52782,-56.82094 a 0.65810969,0.67052685 30.4 0 0 -0.88162,0.23593 q -3.94866,6.30792 -8.84102,11.73421 -15.57112,17.27228 -33.74985,31.76311 -2.3841,1.89982 -5.0662,3.27813 a 1.440391,1.4279738 52.1 0 1 -1.62665,-0.21109 c -13.11252,-11.7218 -24.77224,-21.23335 -37.99652,-35.76143 q -4.70611,-5.16555 -8.20775,-10.72843 a 0.99337311,1.0057903 57.1 0 0 -1.40314,-0.29802 c -21.09676,14.16799 -46.97413,26.88317 -65.22736,46.36569 -24.0893,25.71595 -30.78215,57.03204 -18.14148,90.06169 q 2.01158,5.24004 5.01653,8.90311 0.96855,1.16722 2.42136,0.75745 l 25.29376,-7.06537 q 0.60844,-0.17383 0.49669,-0.80711 c -6.25826,-36.27054 -6.20859,-67.57421 27.59093,-89.92511 a 0.88161864,0.88161864 0 0 1 1.32864,0.98096 c -12.8766,43.16207 -13.65888,91.67592 -13.24911,132.64015 q 0,0.75744 0.70777,1.04303 c 13.14978,5.19039 31.01808,6.77978 44.14302,7.81041 q 51.77958,4.02316 103.08729,-3.71274 7.04054,-1.06787 14.85093,-3.79965 0.54636,-0.19868 0.58361,-0.78228 0.81954,-14.42875 -0.83195,-28.78298 a 1.291385,1.291385 0 0 0 -1.67632,-1.09272 q -13.22427,4.08525 -25.38068,-2.35926 -0.58361,-0.31043 -0.98095,0.2111 c -27.29293,35.04123 -76.01788,37.99651 -101.05089,-1.53974 -10.24416,-16.16715 -8.4685,-35.02882 -7.89731,-54.49892 q 0.2856,-10.20691 0.88162,-20.40141 c 0.32285,-5.72431 4.17217,-8.19533 9.73505,-8.45608 14.26732,-0.67053 29.56527,-2.12334 42.77714,-2.14818 q 27.9262,-0.0373 55.75305,2.84354 c 9.31288,0.96854 7.94699,16.15473 7.67382,23.02142 q -0.0373,0.83195 0.68294,0.40976 7.7359,-4.39567 16.55208,-5.58772 0.73262,-0.0993 0.65811,-0.83195 c -1.06788,-11.26237 -2.19784,-24.5984 -6.34517,-35.56276 q -0.31042,-0.81953 0.48426,-0.47186 z m -73.21159,-14.3294 q 4.01074,1.85016 6.37,-2.64485 0.26077,-0.48427 0.16143,-1.01821 c -0.75745,-4.42051 -0.4346,-11.28721 -3.46439,-14.7516 a 1.6390656,1.6390656 0 0 0 -2.74419,0.44703 c -1.57699,3.79965 -5.43872,15.62079 -0.32285,17.96763 z m 92.54512,55.98899 2.60761,-0.75744 a 0.27317761,0.27317761 0 0 0 0.17383,-0.33526 l -0.40976,-1.4404 a 15.211026,1.6142313 73.8 0 0 -5.79882,-14.15556 h -0.0249 a 15.211026,1.6142313 73.8 0 0 2.69452,15.06202 l 0.42219,1.44039 a 0.27317761,0.27317761 0 0 0 0.33526,0.18625 z M 297.55801,328.4445 q -26.1133,-2.13575 -50.4261,-2.34685 c -14.20524,-0.12416 -30.17371,1.51491 -45.27297,2.24751 q -0.80712,0.0373 -0.84437,0.84437 -0.6457,13.74581 -1.34106,27.83928 -0.62086,12.52892 1.05547,22.47507 c 4.22183,25.04542 26.20021,43.12481 51.77957,41.27466 16.61416,-1.20447 31.16707,-10.72844 40.29369,-24.64808 a 0.86920148,0.88161864 43.6 0 0 -0.0124,-0.99337 c -10.93952,-15.63321 -7.1647,-31.34092 5.09104,-44.88805 a 1.3783052,1.3907223 66 0 0 0.3601,-0.93129 l -0.18625,-20.35173 q -0.0124,-0.48427 -0.4967,-0.52152 z M 156.7598,384.52041 c 0.33526,-19.11001 1.60181,-38.03377 6.32033,-56.52292 q 0.22351,-0.89404 -0.44702,-0.26077 -1.39072,1.29139 -2.25992,3.01738 c -9.16386,17.98005 -7.18953,33.87402 -5.82365,53.14545 q 0.11175,1.49006 0.47185,1.67633 1.70115,0.84437 1.73841,-1.05547 z m 138.35204,-10.2814 q -0.99338,9.44945 5.46355,15.93122 1.25413,4.49501 5.98507,6.61835 c 6.12166,2.74419 15.18619,1.11754 21.46928,-1.12996 a 1.7135686,1.7135686 0 0 1 2.03641,0.70777 l 3.24089,5.17796 a 2.6324388,2.6324388 0 0 0 3.29054,1.01821 q 4.86752,-2.13576 8.14566,-6.40726 a 2.048832,2.0364149 41.4 0 0 -0.17385,-2.66969 l -4.44534,-4.53227 a 1.0678761,1.0678761 0 0 1 -0.19868,-1.20447 c 6.5066,-13.48503 13.60922,-24.78466 -0.78227,-36.53128 q -0.57119,-0.16143 -0.83195,-0.81954 c -16.1299,-13.85755 -43.55941,4.79302 -43.19931,23.84096 z m 46.08009,33.34008 c -7.89732,4.50743 8.70443,15.01235 15.37245,11.94531 q 7.27645,-3.34021 12.35507,-9.75989 0.52153,-0.65811 -0.23592,-1.00579 L 350.8649,400.7869 q -0.70778,-0.31043 -1.27897,0.21109 -5.30213,4.83028 -8.394,6.5811 z m -211.65056,1.80048 c 5.01654,6.17134 16.70109,16.16715 24.10171,8.26984 a 1.5521455,1.5521455 0 0 0 0.42219,-1.03063 l 0.47185,-14.26732 q 0.0249,-0.90645 -0.84437,-0.65811 l -23.81612,6.63077 q -0.98095,0.27318 -0.33526,1.05545 z m 129.79662,45.13639 -3.26572,0.62087 q -0.80711,0.149 -0.7947,0.95612 l 0.0497,31.78794 q 0,0.83195 0.83194,0.84437 l 2.75662,0.0373 62.28449,-0.98095 a 0.80711565,0.80711565 0 0 0 0.76986,-0.63328 q 4.20942,-19.18451 5.51323,-38.79121 0.149,-2.24751 -2.06126,-1.76324 c -21.64311,4.7061 -43.845,6.19616 -66.08414,7.92215 z m -79.87963,33.78711 64.46992,0.3601 q 0.50911,0 0.50911,-0.50911 l -0.17384,-33.22833 a 0.73261267,0.7201955 89.1 0 0 -0.74503,-0.73261 q -35.98494,0.75744 -71.64704,-5.92299 -1.68873,-0.75745 -3.15396,-0.76986 -0.75745,0 -0.69536,0.75745 1.10513,14.67709 4.09766,31.80036 c 0.78229,4.45776 1.46524,9.05211 7.33854,8.24499 z"
     id="path319"
     style="stroke-width:1.24171" />
  <path
     fill="#5d1d1a"
     d="m 191.35401,71.769305 c 7.20196,-24.958497 37.38808,-22.599236 57.2928,-22.624071 q 0.64569,0 0.7947,-0.620858 0.0621,-0.26076 0,-0.533938 c 25.60419,2.359262 53.43105,5.25246 64.95419,-21.283018 a 0.42218357,0.43460074 49.5 0 1 0.80711,0.06208 c 4.53226,17.42128 1.94949,38.878145 -12.18124,51.344974 a 0.52152088,0.53393804 21.3 0 0 0.39735,0.918868 q 17.54544,-1.874991 33.81193,-8.704433 1.09271,-0.459428 0.55877,0.583608 -8.20774,15.968473 -25.24409,21.829378 a 0.60844103,0.60844103 0 0 1 -0.4346,-1.129961 q 4.40809,-1.974329 7.68623,-5.525644 a 0.42218357,0.42218357 0 0 0 -0.45944,-0.682946 c -42.9758,16.018146 -88.89447,9.846818 -127.98371,-13.634043 z"
     id="path321"
     style="stroke-width:1.24171" />
  <path
     fill="#e15052"
     d="m 249.44151,47.990438 q 0.0621,0.273178 0,0.533938 -0.14901,0.620858 -0.7947,0.620858 c -19.90472,0.02483 -50.09084,-2.334426 -57.2928,22.624071 l -1.50247,5.475974 a 1.8253231,1.8253231 0 0 1 -3.46439,0.186252 c -8.09599,-20.612489 6.97845,-30.322711 25.51727,-31.55201 13.16219,-0.869202 25.07025,0.968538 37.53709,2.110917 z"
     id="path323"
     style="stroke-width:1.24171" />
  <path
     fill="#5d1d1a"
     d="m 179.37145,101.27249 c -12.97594,-2.309597 -16.41549,-18.153892 -2.8932,-23.244937 q 8.245,-3.116704 13.08769,3.216055 0.42219,0.546352 0.16143,1.179629 c -4.15975,10.480085 -3.55132,25.753193 -4.1225,43.298643 q -0.0249,0.80712 -0.80712,0.96854 l -3.8369,0.78228 q -0.7202,0.14901 -0.7202,-0.5836 l -0.0744,-24.67291 a 0.96853878,0.95612162 5.4 0 0 -0.7947,-0.9437 z"
     id="path325"
     style="stroke-width:1.24171" />
  <path
     fill="#fcd1ad"
     d="m 254.22211,103.35858 q 1.42798,1.85015 -2.6821,2.09849 -0.5712,0.0249 -0.44703,0.58361 c 1.2293,5.58772 0.99338,10.93953 1.34107,16.639 q 0,0.13659 0.0993,0.2235 0.17385,0.16144 0.31043,0.33527 0.27318,0.3601 0.2856,0.80712 l 0.44702,17.39645 q 0.0124,0.59602 0.59602,0.72019 0.94371,0.21109 1.30381,0.68295 l -0.19868,2.02399 q -0.0745,0.75745 -0.84437,0.80712 l -10.96435,0.57119 a 0.7201955,0.7201955 0 0 1 -0.75745,-0.81954 q 1.27897,-9.35012 -5.11587,-14.82609 c -7.40063,-6.35758 -13.86998,-5.14071 -25.45519,-4.50743 q -8.70443,0.47185 -17.08602,1.17963 -0.88161,0.0746 -0.88161,-0.81953 0.21109,-19.69363 3.15396,-39.151321 0.13659,-0.831955 0.91886,-0.509098 c 18.52641,7.860063 36.15879,13.894809 55.97658,16.564499 z"
     id="path327"
     style="stroke-width:1.24171" />
  <path
     fill="#5d1d1a"
     d="m 313.94867,127.1126 a 1.3162194,1.3162194 0 0 1 -1.27897,-1.34105 l 0.48427,-23.24493 a 2.6448559,2.3344268 1.2 0 1 2.69453,-2.27233 l 2.83111,0.0621 a 2.6448559,2.3344268 1.2 0 1 2.59519,2.38408 l -0.49669,23.24493 a 1.3162194,1.3162194 0 0 1 -1.34105,1.27897 z"
     id="path329"
     style="stroke-width:1.24171" />
  <path
     fill="#edc19f"
     d="m 255.47625,142.84516 q -0.3601,-0.47186 -1.30381,-0.68295 -0.5836,-0.12417 -0.59602,-0.72019 l -0.44701,-17.39645 q -0.0124,-0.44702 -0.2856,-0.80712 -0.13659,-0.17383 -0.31044,-0.33527 -0.0993,-0.0869 -0.0993,-0.2235 c -0.34769,-5.69947 -0.11177,-11.05128 -1.34106,-16.639 q -0.12417,-0.55878 0.44702,-0.58361 4.11008,-0.24834 2.68211,-2.09849 23.40635,2.47101 47.25972,-0.95613 0.6457,-0.0993 0.70778,0.55877 l 2.03641,24.0893 q 0.0746,0.80711 -0.73261,0.73262 -11.27479,-1.09272 -22.48749,-2.024 c -13.6092,-1.14238 -24.25072,1.41555 -25.52967,17.08602 z"
     id="path331"
     style="stroke-width:1.24171" />
  <path
     fill="#ffcc38"
     d="m 178.21665,152.74163 c -3.62581,-6.6556 -3.71273,-21.12159 7.12746,-20.67458 q 0.78227,0.0373 0.17384,0.52153 c -6.54385,5.24004 -5.7119,12.47924 -6.75495,20.05371 q -0.12416,0.88163 -0.54635,0.0993 z"
     id="path333"
     style="stroke-width:1.24171" />
  <path
     fill="#ffcc38"
     d="m 320.31867,154.29378 a 0.6208582,0.6208582 0 0 1 -1.21687,-0.0497 l -2.95529,-19.32109 a 1.4155567,1.4279738 7.1 0 0 -0.83195,-1.08031 l -2.34684,-1.0182 a 0.31042909,0.31042909 0 0 1 0.14901,-0.59603 c 9.82196,0.40977 8.692,15.72013 7.20194,22.0653 z"
     id="path335"
     style="stroke-width:1.24171" />
  <path
     fill="#fcd1ad"
     d="m 223.67589,134.63741 c 6.10925,-0.3601 10.08274,3.43956 10.21933,9.49913 q 0.36009,16.37824 -0.23593,22.41298 c -0.85679,8.6796 -7.63656,11.34929 -15.80705,12.00739 q -11.6473,0.91888 -23.33186,0.0993 c -6.24582,-0.4346 -9.54879,-2.25992 -8.99002,-9.01487 q 1.27897,-15.21101 4.17217,-29.8881 a 2.9180336,2.9304507 2.2 0 1 2.52068,-2.34685 q 15.27311,-1.82532 31.45268,-2.76903 z m -9.42462,28.83265 a 2.3220097,2.3220097 0 0 1 -1.91225,-2.86836 q 2.13575,-8.33192 10.75326,-6.95361 0.63328,0.0993 0.55878,-0.54636 c -1.42798,-13.26153 -25.56695,-5.68706 -21.9908,7.74831 3.24088,12.16883 20.12822,16.67625 24.03963,1.96192 a 0.65810969,0.64569252 85.7 0 0 -0.88162,-0.76987 q -5.11587,2.22267 -10.567,1.42797 z"
     id="path337"
     style="stroke-width:1.24171" />
  <path
     fill="#edc19f"
     d="m 266.82553,137.94037 c 2.88079,-4.18458 5.69949,-3.24088 10.08274,-2.93045 q 15.07444,1.04305 30.0992,3.83691 0.60845,0.11175 0.70778,0.73261 4.11008,26.10087 4.74336,33.11658 c 0.4346,4.76819 -2.69452,6.10924 -6.95361,6.22099 q -16.93701,0.45944 -30.21095,-1.00579 c -6.76736,-0.74503 -9.66056,-5.36421 -9.98341,-12.0819 -0.29801,-6.41967 -2.02399,-22.77307 1.51489,-27.88895 z m 7.35097,14.41633 q -0.86921,1.25413 0.63327,1.03062 7.49997,-1.05546 10.49251,5.88574 0.24834,0.57119 0.0249,1.14238 c -2.19784,5.61256 -7.64897,3.51406 -12.05706,3.10429 q -0.69536,-0.0746 -0.47186,0.59603 c 5.26488,15.54628 25.21926,4.24667 22.56199,-8.29467 q -1.92466,-9.07694 -11.6473,-9.35012 c -5.07862,-0.14901 -6.87911,2.06124 -9.53638,5.88573 z"
     id="path339"
     style="stroke-width:1.24171" />
  <path
     fill="#010101"
     d="m 214.25127,163.47006 q 5.45113,0.7947 10.567,-1.42797 a 0.65810969,0.64569252 85.7 0 1 0.88162,0.76987 c -3.91141,14.71433 -20.79875,10.20691 -24.03963,-1.96192 -3.57615,-13.43537 20.56282,-21.00984 21.9908,-7.74831 q 0.0744,0.64569 -0.55878,0.54636 -8.61751,-1.37831 -10.75326,6.95361 a 2.3220097,2.3220097 0 0 0 1.91225,2.86836 z"
     id="path341"
     style="stroke-width:1.24171" />
  <path
     fill="#010101"
     d="m 274.1765,152.3567 c 2.65727,-3.82449 4.45776,-6.03474 9.53638,-5.88573 q 9.72264,0.27318 11.6473,9.35012 c 2.65727,12.54134 -17.29712,23.84095 -22.56199,8.29467 q -0.2235,-0.67054 0.47186,-0.59603 c 4.40808,0.40977 9.85922,2.50827 12.05706,-3.10429 q 0.22351,-0.57119 -0.0249,-1.14238 -2.99253,-6.9412 -10.49251,-5.88574 -1.50247,0.22351 -0.63326,-1.03062 z"
     id="path343"
     style="stroke-width:1.24171" />
  <path
     fill="#fcd1ad"
     d="m 174.4915,162.87404 a 2.2475066,2.2599239 10.4 0 1 1.36589,1.99916 q 0.0869,3.31538 -0.12417,6.82944 c -0.29801,4.68128 1.78807,8.94036 2.84353,13.42295 q 0.17384,0.74503 -0.57119,0.5712 c -12.21848,-2.91804 -19.58186,-21.66796 -11.34928,-31.57685 a 0.94370445,0.95612162 61.6 0 1 1.67631,0.49668 q 0.68294,5.92299 6.15891,8.25742 z"
     id="path345"
     style="stroke-width:1.24171" />
  <path
     fill="#edc19f"
     d="m 329.17211,154.3807 a 0.34768059,0.33526342 26.5 0 1 0.5712,-0.18626 c 2.09849,1.97433 3.25329,4.06041 3.61338,7.05295 q 2.03643,16.86251 -12.78967,24.41214 a 0.93128729,0.91887012 87.2 0 1 -1.27897,-1.16721 c 2.64486,-6.73011 2.60761,-12.30541 2.75662,-19.42044 a 1.1920478,1.2168821 74.6 0 1 0.5836,-1.00579 q 5.48838,-3.35264 6.54384,-9.68539 z"
     id="path347"
     style="stroke-width:1.24171" />
  <path
     fill="#fcd1ad"
     d="m 259.54908,240.81658 c 1.39072,-1.65149 2.11091,-2.93045 4.24666,-3.62581 16.27891,-5.24005 31.88728,-16.80043 39.11407,-32.52056 1.53973,-3.3278 2.024,-7.62414 3.87416,-11.31204 a 1.812906,1.8004888 12 0 0 -1.70116,-2.62002 c -8.07115,0.37252 -16.06781,0.24835 -24.08929,-0.69536 -4.70611,-0.54635 -9.6233,-0.0248 -13.68372,-2.30959 q -5.53806,-3.10429 -9.03969,-8.71685 a 0.40976641,0.40976641 0 0 0 -0.75744,0.22351 v 0.60845 q 0,0.52151 -0.45944,0.79469 -1.86258,1.10513 -1.55215,3.31538 0.0993,0.67053 -0.16142,1.29139 l -3.20363,7.84765 q -0.0744,0.19867 0.12417,0.23592 l 0.44702,0.0746 a 0.23592612,0.23592612 0 0 1 0.17384,0.32284 q -2.88078,6.7922 -2.91804,14.11832 a 0.80711565,0.79469849 2.3 0 0 0.75746,0.80712 q 2.7566,0.14901 3.16637,1.55214 c -17.03635,1.75083 -28.16212,-1.61422 -40.34336,-13.11253 a 1.6763171,1.6390656 66.3 0 0 -1.14239,-0.45943 h -1.78806 q -1.03064,0 -0.67053,0.96854 4.6316,12.50409 17.12327,16.10506 c 22.16464,6.37001 46.35326,8.48092 58.32342,-15.7698 q 1.99916,0.69536 1.77565,1.39072 c -2.83111,8.81619 -10.91469,15.55871 -18.89892,19.54462 q -2.35926,1.16722 -6.81703,0.47186 a 1.6887343,1.7508202 38.7 0 0 -0.9437,0.12416 l -4.51985,1.96192 a 1.365888,1.3783052 49.2 0 1 -1.24171,-0.0869 l -1.85017,-1.12996 a 1.1796305,1.1672134 88.9 0 0 -1.58939,1.65148 c 1.09271,1.63907 -0.0621,3.45198 -0.0869,4.92961 q -0.0993,7.57448 -0.96854,15.22345 c -30.57107,-1.10512 -57.40455,-19.96679 -61.37804,-51.59331 q -0.21109,-1.62665 -0.4967,-2.54552 -0.19866,-0.59602 0.42219,-0.54635 15.1862,1.0182 30.3103,0.74503 13.34845,-0.24835 20.46349,-10.34351 c 3.63822,-5.19037 3.38988,-14.85092 3.72514,-21.24577 q 0.0497,-0.78227 0.83195,-0.7947 l 10.45526,-0.21109 q 0.5836,-0.0124 0.63327,0.58361 c 0.54636,6.64319 0.33526,14.59018 3.56372,20.23998 5.97266,10.44284 14.04382,11.68455 26.28714,11.59763 q 12.08191,-0.0869 24.12655,0.23593 0.60845,0.0124 0.54635,0.63328 c -2.96769,25.6166 -24.20105,47.94266 -50.19017,52.04033 z"
     id="path349"
     style="stroke-width:1.24171" />
  <path
     fill="#edc19f"
     d="m 259.54908,240.81658 -9.30046,1.20446 q 0.8692,-7.64897 0.96854,-15.22345 c 0.0248,-1.47763 1.17963,-3.29054 0.0869,-4.92961 a 1.1796305,1.1672134 88.9 0 1 1.5894,-1.65148 l 1.85016,1.12996 a 1.365888,1.3783052 49.2 0 0 1.24172,0.0869 l 4.51985,-1.96192 a 1.6887343,1.7508202 38.7 0 1 0.9437,-0.12416 q 4.45776,0.69536 6.81702,-0.47186 c 7.98423,-3.98591 16.06781,-10.72843 18.89893,-19.54462 q 0.2235,-0.69536 -1.77565,-1.39072 -4.50744,-2.55793 -9.73507,3.50165 c -6.30792,7.32612 -12.77726,7.72347 -21.76728,8.76651 q -0.40977,-1.40313 -3.16638,-1.55214 a 0.80711565,0.79469849 2.3 0 1 -0.75745,-0.80711 q 0.0373,-7.32613 2.91804,-14.11833 a 0.23592612,0.23592612 0 0 0 -0.17384,-0.32284 l -0.44703,-0.0746 q -0.19866,-0.0373 -0.12416,-0.23592 l 3.20362,-7.84765 q 0.26077,-0.62086 0.16143,-1.29139 -0.31043,-2.21025 1.55214,-3.31538 0.45944,-0.27318 0.45944,-0.79469 v -0.60845 a 0.40976641,0.40976641 0 0 1 0.75745,-0.22351 q 3.50163,5.61256 9.03969,8.71685 c 4.06041,2.28476 8.97761,1.76324 13.68371,2.30959 8.02149,0.94371 16.01815,1.06788 24.0893,0.69536 a 1.812906,1.8004888 12 0 1 1.70115,2.62002 c -1.85016,3.6879 -2.33443,7.98424 -3.87416,11.31204 -7.22678,15.72013 -22.83516,27.28051 -39.11406,32.52056 -2.13575,0.69536 -2.85594,1.97432 -4.24666,3.62581 z"
     id="path351"
     style="stroke-width:1.24171" />
  <path
     fill="#010101"
     d="m 253.88685,210.20827 c 8.99003,-1.04305 15.45937,-1.44039 21.76729,-8.76652 q 5.22762,-6.05958 9.73506,-3.50164 c -11.97016,24.25072 -36.15878,22.13981 -58.32342,15.76979 q -12.49167,-3.60097 -17.12327,-16.10505 -0.36011,-0.96854 0.67053,-0.96854 h 1.78806 a 1.6763171,1.6390656 66.3 0 1 1.14239,0.45943 c 12.18124,11.4983 23.30701,14.86335 40.34336,13.11253 z"
     id="path353"
     style="stroke-width:1.24171" />
  <path
     fill="#ffffff"
     d="m 241.59386,264.24776 q 1.06788,0.69537 0.69536,1.89983 l -3.92383,13.13736 q -0.19867,0.63328 -0.6581,0.14901 c -10.80293,-11.33687 -18.32774,-18.56367 -23.77887,-27.4171 q -2.54552,-4.1225 -0.0373,-8.77894 0.34769,-0.64569 0.94371,-0.22351 c 9.41221,6.56868 17.30953,15.06203 26.75899,21.23335 z"
     id="path355"
     style="stroke-width:1.24171" />
  <path
     fill="#ced6de"
     d="m 274.97119,262.52178 q -4.35842,4.06041 -14.00656,16.11748 -0.47185,0.58361 -0.69536,-0.13659 -2.27234,-7.28887 -7.04053,-13.27395 a 0.63327536,0.63327536 0 0 1 0.13659,-0.91887 q 7.71105,-5.30213 14.87576,-11.02644 c 4.71853,-3.77481 9.52397,-6.61835 14.50325,-9.72264 q 0.4346,-0.27318 0.58361,0.21109 c 2.29717,6.95361 -2.90562,13.68371 -8.35676,18.74992 z"
     id="path357"
     style="stroke-width:1.24171" />
  <path
     fill="#edc19f"
     d="m 229.00285,249.16091 c 14.06865,2.58277 21.28302,2.64486 36.00978,1.20447 a 0.40976641,0.40976641 0 0 1 0.27317,0.74503 q -3.96107,2.69452 -15.28552,10.30624 -2.73178,1.83774 -4.94203,0.48428 -8.74169,-5.36423 -16.25407,-12.31784 -0.62085,-0.57119 0.19867,-0.42218 z"
     id="path359"
     style="stroke-width:1.24171" />
  <path
     fill="#ffcc38"
     d="m 319.30047,300.29479 c 4.14733,10.96436 5.27729,24.30039 6.34517,35.56276 q 0.0745,0.73261 -0.65811,0.83195 -8.81618,1.19205 -16.55208,5.58772 -0.7202,0.42219 -0.68294,-0.40976 c 0.27317,-6.86669 1.63906,-22.05288 -7.67382,-23.02142 q -27.82685,-2.88078 -55.75305,-2.84354 c -13.21187,0.0249 -28.50982,1.47765 -42.77714,2.14818 -5.56288,0.26075 -9.4122,2.73177 -9.73505,8.45608 q -0.59602,10.1945 -0.88162,20.40141 c -0.57119,19.4701 -2.34685,38.33177 7.89731,54.49892 25.03301,39.53625 73.75796,36.58097 101.05089,1.53974 q 0.39734,-0.52153 0.98095,-0.2111 12.15641,6.44451 25.38068,2.35926 a 1.291385,1.291385 0 0 1 1.67632,1.09272 q 1.65149,14.35423 0.83195,28.78298 -0.0373,0.5836 -0.58361,0.78228 -7.81039,2.73178 -14.85093,3.79965 -51.30771,7.7359 -103.08729,3.71274 c -13.12494,-1.03063 -30.99324,-2.62002 -44.14302,-7.81041 q -0.70777,-0.28559 -0.70777,-1.04303 c -0.40977,-40.96423 0.37251,-89.47808 13.24911,-132.64015 a 0.88161864,0.88161864 0 0 0 -1.32864,-0.98096 c -33.79952,22.3509 -33.84919,53.65457 -27.59093,89.92511 q 0.11175,0.63328 -0.49669,0.80711 l -25.29376,7.06537 q -1.45281,0.40977 -2.42136,-0.75745 -3.00495,-3.66307 -5.01653,-8.90311 c -12.64067,-33.02965 -5.94782,-64.34574 18.14148,-90.06169 18.25323,-19.48252 44.1306,-32.1977 65.22736,-46.36569 a 0.99337311,1.0057903 57.1 0 1 1.40314,0.29802 q 3.50164,5.56288 8.20775,10.72843 c 13.22428,14.52808 24.884,24.03963 37.99652,35.76143 a 1.440391,1.4279738 52.1 0 0 1.62665,0.21109 q 2.6821,-1.37831 5.0662,-3.27813 18.17873,-14.49083 33.74985,-31.76311 4.89236,-5.42629 8.84102,-11.73421 a 0.65810969,0.67052685 30.4 0 1 0.88162,-0.23593 c 27.73995,15.22344 55.21913,31.70102 74.52782,56.82094 19.06034,24.80949 20.82358,56.54777 7.76073,84.92099 q -1.00579,2.17299 -3.36505,4.32117 -0.45944,0.42218 -1.05547,0.23592 c -6.64317,-2.03641 -20.78633,-5.5008 -25.59177,-10.14482 q -0.55877,-0.53394 -0.19868,-1.21688 c 4.38326,-8.59268 7.15229,-16.639 6.4321,-25.96429 -0.47185,-5.98508 -3.74998,-11.15062 -4.55711,-17.21019 -2.37167,-18.04214 -14.31699,-36.87897 -31.78794,-44.52796 q -0.79468,-0.34767 -0.48426,0.47186 z"
     id="path361"
     style="stroke-width:1.24171" />
  <path
     fill="#827e80"
     d="m 246.57314,285.49353 c -5.11587,-2.34684 -1.25414,-14.16798 0.32285,-17.96763 a 1.6390656,1.6390656 0 0 1 2.74419,-0.44703 c 3.02979,3.46439 2.70694,10.33109 3.46439,14.7516 q 0.0993,0.53394 -0.16143,1.01821 -2.35926,4.49501 -6.37,2.64485 z"
     id="path363"
     style="stroke-width:1.24171" />
  <path
     fill="#2a292f"
     d="m 339.11826,341.48252 a 0.27317761,0.27317761 0 0 1 -0.33526,-0.18625 l -0.42219,-1.44039 a 15.211026,1.6142313 73.8 0 1 -2.69452,-15.06202 h 0.0249 a 15.211026,1.6142313 73.8 0 1 5.79882,14.15556 l 0.40976,1.4404 a 0.27317761,0.27317761 0 0 1 -0.17384,0.33526 z"
     id="path365"
     style="stroke-width:1.24171" />
  <path
     fill="#ffffff"
     d="m 297.55801,328.4445 q 0.48427,0.0373 0.4967,0.52152 l 0.18625,20.35173 a 1.3783052,1.3907223 66 0 1 -0.3601,0.93129 c -12.25574,13.54713 -16.03056,29.25484 -5.09104,44.88805 a 0.86920148,0.88161864 43.6 0 1 0.0124,0.99337 c -9.12662,13.91964 -23.67953,23.44361 -40.29369,24.64808 -25.57936,1.85015 -47.55774,-16.22924 -51.77957,-41.27466 q -1.67633,-9.94615 -1.05547,-22.47507 0.69537,-14.09347 1.34106,-27.83928 0.0373,-0.80711 0.84437,-0.84437 c 15.09926,-0.7326 31.06773,-2.37167 45.27297,-2.24751 q 24.31281,0.2111 50.4261,2.34685 z m -59.72656,53.61732 q -2.04882,1.04304 -2.89319,1.86257 c -5.91058,5.68706 -14.39149,11.42379 -19.0231,17.98005 a 1.2168821,1.2292992 47.9 0 0 -0.0744,1.30381 q 1.70114,2.99253 4.97928,4.12249 0.53394,0.18627 1.08029,0.0124 c 6.43209,-2.19784 13.86998,-11.63488 20.63732,-18.76233 q 0.48427,-0.49669 1.16722,-0.48427 l 11.59763,0.24835 a 1.1672134,1.0802933 65.9 0 1 0.74503,0.32284 q 7.43788,7.22679 14.72676,14.65225 c 3.67548,3.74998 7.58689,5.77398 11.10095,0.39735 q 0.37251,-0.54636 0.12416,-1.16721 -0.95612,-2.43377 -3.26571,-4.58193 -8.84103,-8.23258 -17.74412,-16.57692 -0.50911,-0.47185 -0.22351,-1.10512 2.94287,-6.49419 -0.73262,-12.69035 a 0.96853878,0.757447 53.9 0 1 0.0373,-1.08029 l 23.81611,-22.95934 a 1.3410536,1.3286365 40.3 0 0 -0.17384,-2.07367 l -7.32612,-4.87994 a 1.0306246,1.0306246 0 0 0 -1.32864,0.16142 q -11.38654,12.28058 -19.92955,23.87821 -1.35346,1.85016 -3.26571,1.34105 -0.62086,-0.17384 -1.25414,-0.13658 l -5.96023,0.33526 q -0.67053,0.0373 -1.09272,-0.47185 -8.65476,-10.43042 -16.96184,-21.14644 -1.96191,-2.53309 -5.57531,-4.25909 a 1.0182074,1.0430418 41 0 0 -1.05545,0.0869 q -3.79965,2.70695 -5.97266,6.85427 a 1.3038022,1.3162194 35 0 0 0.27318,1.5894 l 23.12076,20.96017 a 1.2789679,1.2789679 0 0 1 0.34767,1.34107 q -2.322,7.06536 0.45944,13.93204 0.27318,0.67054 -0.3601,0.99338 z"
     id="path367"
     style="stroke-width:1.24171" />
  <path
     fill="#2a292f"
     d="m 163.08013,327.99749 c -4.71852,18.48915 -5.98507,37.41291 -6.32033,56.52292 q -0.0373,1.89984 -1.73841,1.05547 -0.3601,-0.18627 -0.47185,-1.67633 c -1.36588,-19.27143 -3.34021,-35.1654 5.82365,-53.14545 q 0.8692,-1.72599 2.25992,-3.01738 0.67053,-0.63327 0.44702,0.26077 z"
     id="path369"
     style="stroke-width:1.24171" />
  <path
     fill="#010101"
     d="m 238.19156,381.06844 q -2.78145,-6.86669 -0.45944,-13.93205 a 1.2789679,1.2789679 0 0 0 -0.34768,-1.34106 l -23.12076,-20.96017 a 1.3038022,1.3162194 35 0 1 -0.27318,-1.5894 q 2.17301,-4.14733 5.97266,-6.85427 a 1.0182074,1.0430418 41 0 1 1.05545,-0.0869 q 3.6134,1.72599 5.57532,4.25909 8.30707,10.71601 16.96184,21.14643 0.42218,0.50911 1.09271,0.47185 l 5.96023,-0.33526 q 0.63328,-0.0373 1.25414,0.13659 1.91225,0.5091 3.26572,-1.34106 8.54301,-11.59763 19.92954,-23.8782 a 1.0306246,1.0306246 0 0 1 1.32864,-0.16143 l 7.32613,4.87995 a 1.3410536,1.3286365 40.3 0 1 0.17383,2.07366 l -23.81611,22.95934 a 0.96853878,0.757447 53.9 0 0 -0.0373,1.08029 q 3.67548,6.19617 0.73261,12.69035 -0.2856,0.63328 0.22351,1.10512 8.9031,8.34434 17.74412,16.57692 2.30959,2.14817 3.26572,4.58194 0.24834,0.62085 -0.12417,1.1672 c -3.51406,5.37664 -7.42547,3.35264 -11.10095,-0.39734 q -7.28888,-7.42547 -14.72676,-14.65225 a 1.1672134,1.0802933 65.9 0 0 -0.74503,-0.32285 l -11.59763,-0.24835 q -0.68294,-0.0124 -1.16721,0.48427 c -6.76735,7.12745 -14.20524,16.5645 -20.63733,18.76233 q -0.54635,0.17385 -1.08029,-0.0124 -3.27814,-1.12996 -4.97928,-4.1225 a 1.2168821,1.2292992 47.9 0 1 0.0744,-1.30381 c 4.6316,-6.55625 13.11252,-12.29299 19.02309,-17.98004 q 0.84437,-0.81953 2.8932,-1.86258 0.63327,-0.32285 0.3601,-0.99338 z"
     id="path371"
     style="stroke-width:1.24171" />
  <path
     fill="#ffffff"
     d="m 338.31115,350.39805 q 0.0993,2.34684 -1.60182,1.71356 c -6.90394,-2.53309 -11.49829,-1.71356 -16.89976,3.45198 -8.76651,8.394 -14.59016,13.69613 -24.69773,18.67542 -0.3601,-19.04794 27.06941,-37.69851 43.19931,-23.84096 z"
     id="path373"
     style="stroke-width:1.24171" />
  <path
     fill="#ced6de"
     d="m 338.31115,350.39805 q 0.26076,0.65811 0.83195,0.81954 c 3.72515,15.6332 -6.17134,30.16128 -18.91134,38.20761 q -8.85344,5.58771 -19.65637,0.74503 -6.45693,-6.48177 -5.46355,-15.93122 c 10.10757,-4.97929 15.93122,-10.28142 24.69773,-18.67542 5.40147,-5.16554 9.99582,-5.98507 16.89976,-3.45198 q 1.70115,0.63328 1.60182,-1.71356 z"
     id="path375"
     style="stroke-width:1.24171" />
  <path
     fill="#2a292f"
     d="m 339.1431,351.21759 c 14.39149,11.74662 7.28887,23.04625 0.78227,36.53128 a 1.0678761,1.0678761 0 0 0 0.19868,1.20447 l 4.44534,4.53227 a 2.048832,2.0364149 41.4 0 1 0.17385,2.66969 q -3.27814,4.2715 -8.14566,6.40726 a 2.6324388,2.6324388 0 0 1 -3.29054,-1.01821 l -3.24089,-5.17796 a 1.7135686,1.7135686 0 0 0 -2.03641,-0.70777 c -6.28309,2.2475 -15.34762,3.87415 -21.46928,1.12996 q -4.73094,-2.12334 -5.98507,-6.61835 10.80293,4.84268 19.65637,-0.74503 c 12.74,-8.04633 22.63649,-22.57441 18.91134,-38.20761 z"
     id="path377"
     style="stroke-width:1.24171" />
  <path
     fill="#edc19f"
     d="m 356.56438,419.5244 c -6.66802,3.06704 -23.26977,-7.43788 -15.37245,-11.94531 q 3.09187,-1.75082 8.394,-6.5811 0.57119,-0.52152 1.27897,-0.21109 l 17.81863,7.97182 q 0.75745,0.34768 0.23592,1.00579 -5.07862,6.41968 -12.35507,9.75989 z"
     id="path379"
     style="stroke-width:1.24171" />
  <path
     fill="#edc19f"
     d="m 153.64308,417.64941 c -7.40062,7.89731 -19.08517,-2.0985 -24.10171,-8.26984 q -0.64569,-0.78227 0.33526,-1.05545 l 23.81612,-6.63077 q 0.8692,-0.24834 0.84437,0.65811 l -0.47185,14.26732 a 1.5521455,1.5521455 0 0 1 -0.42219,1.03063 z"
     id="path381"
     style="stroke-width:1.24171" />
  <path
     fill="#2a292f"
     d="m 258.9158,488.7625 0.42219,-34.24654 c 22.23913,-1.72598 44.44103,-3.21604 66.08414,-7.92214 q 2.21025,-0.48427 2.06126,1.76323 -1.30381,19.60671 -5.51323,38.79122 a 0.80711565,0.80711565 0 0 1 -0.76986,0.63328 z"
     id="path383"
     style="stroke-width:1.24171" />
  <path
     fill="#827e80"
     d="m 171.87148,448.27013 c 2.63244,12.67793 3.26572,25.50486 7.58688,40.03294 -5.8733,0.80712 -6.55625,-3.78723 -7.33854,-8.24499 q -2.99253,-17.12327 -4.09766,-31.80036 -0.0621,-0.75745 0.69536,-0.75745 1.46523,0.0124 3.15396,0.76986 z"
     id="path385"
     style="stroke-width:1.24171" />
  <path
     fill="#2a292f"
     d="m 171.87148,448.27013 q 35.6621,6.68043 71.64704,5.92299 a 0.73261267,0.7201955 89.1 0 1 0.74503,0.73261 l 0.17384,33.22833 q 0,0.50911 -0.50911,0.50911 l -64.46992,-0.3601 c -4.32116,-14.52808 -4.95444,-27.35501 -7.58688,-40.03294 z"
     id="path387"
     style="stroke-width:1.24171" />
  <path
     fill="#827e80"
     d="m 259.33799,454.51596 -0.42219,34.24654 -2.75661,-0.0373 q -0.83195,-0.0124 -0.83195,-0.84437 l -0.0497,-31.78793 q -0.0124,-0.80712 0.7947,-0.95613 z"
     id="path389"
     style="stroke-width:1.24171" />
</svg>
