<?xml version="1.0" encoding="UTF-8" standalone="no"?>
<svg
   version="1.1"
   viewBox="0 0 350 500"
   id="svg391"
   sodipodi:docname="nuclearkid.svg"
   inkscape:version="1.2.2 (b0a8486541, 2022-12-01)"
   width="350"
   height="500"
   xmlns:inkscape="http://www.inkscape.org/namespaces/inkscape"
   xmlns:sodipodi="http://sodipodi.sourceforge.net/DTD/sodipodi-0.dtd"
   xmlns="http://www.w3.org/2000/svg"
   xmlns:svg="http://www.w3.org/2000/svg">
  <defs
     id="defs395" />
  <sodipodi:namedview
     id="namedview393"
     pagecolor="#ffffff"
     bordercolor="#000000"
     borderopacity="0.25"
     inkscape:showpageshadow="2"
     inkscape:pageopacity="0.0"
     inkscape:pagecheckerboard="0"
     inkscape:deskcolor="#d1d1d1"
     showgrid="true"
     inkscape:zoom="2"
     inkscape:cx="146.25"
     inkscape:cy="153.75"
     inkscape:window-width="1366"
     inkscape:window-height="768"
     inkscape:window-x="0"
     inkscape:window-y="0"
     inkscape:window-maximized="1"
     inkscape:current-layer="svg391"
     inkscape:pageshadow="0">
    <inkscape:grid
       type="xygrid"
       id="grid1834"
       originx="0"
       originy="0" />
  </sodipodi:namedview>
  <g
     id="g2043"
     transform="matrix(0.9978753,0,0,1.003164,-73.78647,-2.0109105)">
    <path
       stroke="#71292a"
       vector-effect="non-scaling-stroke"
       d="m 249.44151,47.99044 c -12.46683,-1.14238 -24.3749,-2.98012 -37.53709,-2.110918 -18.53882,1.229299 -33.61326,10.939521 -25.51727,31.552013 a 1.8253231,1.8253231 0 0 0 3.46439,-0.186257 l 1.50247,-5.475969"
       id="path227"
       style="fill:none;stroke-width:2.48343;stroke-linecap:butt" />
    <path
       stroke="#2f0f0e"
       vector-effect="non-scaling-stroke"
       d="m 191.35401,71.769309 c 39.08924,23.480857 85.00791,29.652191 127.98371,13.634046 a 0.42218358,0.42218358 0 0 1 0.45944,0.682944 q -3.27813,3.551309 -7.68623,5.525638 a 0.60844104,0.60844104 0 0 0 0.43461,1.129962 q 17.03634,-5.860902 25.24409,-21.829375 0.53394,-1.043041 -0.55877,-0.583606 -16.26649,6.82944 -33.81194,8.704432 a 0.52152089,0.53393805 21.3 0 1 -0.39735,-0.918871 c 14.13073,-12.466832 16.7135,-33.923692 12.18124,-51.344973 a 0.42218358,0.43460074 49.5 0 0 -0.80712,-0.06209 C 302.87256,53.2429 275.0457,50.349701 249.44151,47.99044"
       id="path229"
       style="fill:none;stroke-width:2.48343;stroke-linecap:butt" />
    <path
       stroke="#9f3736"
       vector-effect="non-scaling-stroke"
       d="m 191.35401,71.769309 c 7.20196,-24.9585 37.38809,-22.599239 57.2928,-22.624073 q 0.64569,0 0.7947,-0.620858 0.0621,-0.260761 0,-0.533938"
       id="path231"
       style="fill:none;stroke-width:2.48343;stroke-linecap:butt" />
    <path
       stroke="#2f0f0e"
       vector-effect="non-scaling-stroke"
       d="m 180.16615,102.21619 0.0745,24.67291 q 0,0.73261 0.7202,0.58361 l 3.8369,-0.78229 q 0.78228,-0.16142 0.80712,-0.96853 c 0.57119,-17.54546 -0.0373,-32.818568 4.1225,-43.298655 q 0.26076,-0.633275 -0.16143,-1.17963 -4.84269,-6.332754 -13.08769,-3.216046 c -13.52229,5.091038 -10.08274,20.935339 2.8932,23.244931 a 0.96853879,0.95612163 5.4 0 1 0.7947,0.9437"
       id="path233"
       style="fill:none;stroke-width:2.48343;stroke-linecap:butt" />
    <path
       stroke="#776150"
       vector-effect="non-scaling-stroke"
       d="m 255.47625,142.84516 c 1.27897,-15.67047 11.92048,-18.2284 25.52969,-17.08602 q 11.2127,0.93128 22.48748,2.024 0.80712,0.0745 0.73262,-0.73262 l -2.03642,-24.0893 q -0.0621,-0.65811 -0.70778,-0.55877 -23.85337,3.42714 -47.25972,0.95612"
       id="path235"
       style="fill:none;stroke-width:2.48343;stroke-linecap:butt" />
    <path
       stroke="#7f6957"
       vector-effect="non-scaling-stroke"
       d="m 254.22212,103.35857 c -19.8178,-2.66969 -37.45017,-8.704428 -55.97658,-16.564493 q -0.78228,-0.322846 -0.91887,0.509104 -2.94287,19.457699 -3.15396,39.151319 0,0.89403 0.88162,0.81953 8.38159,-0.70778 17.08602,-1.17963 c 11.58521,-0.63327 18.05455,-1.85016 25.45518,4.50743 q 6.39484,5.47597 5.11587,14.8261 a 0.72019551,0.72019551 0 0 0 0.75745,0.81953 l 10.96436,-0.57119 q 0.76986,-0.0497 0.84436,-0.80712 l 0.19868,-2.02399"
       id="path237"
       style="fill:none;stroke-width:2.48343;stroke-linecap:butt" />
    <path
       stroke="#f5c9a6"
       vector-effect="non-scaling-stroke"
       d="m 254.22212,103.35857 q 1.42797,1.85016 -2.68211,2.0985 -0.57119,0.0248 -0.44702,0.58361 c 1.2293,5.58773 0.99337,10.93952 1.34105,16.639 q 0,0.13659 0.0993,0.22351 0.17384,0.16142 0.31043,0.33526 0.27318,0.3601 0.2856,0.80712 l 0.44701,17.39645 q 0.0124,0.59602 0.59603,0.72019 0.9437,0.21109 1.3038,0.68295"
       id="path239"
       style="fill:none;stroke-width:2.48343;stroke-linecap:butt" />
    <path
       stroke="#2f0f0e"
       vector-effect="non-scaling-stroke"
       d="m 313.94867,127.11261 5.48839,0.11175 a 1.3162194,1.3162194 0 0 0 1.34105,-1.27896 l 0.49669,-23.24494 a 2.6448559,2.3344268 1.2 0 0 -2.59519,-2.38409 l -2.83111,-0.0621 a 2.6448559,2.3344268 1.2 0 0 -2.69452,2.27234 l -0.48427,23.24493 a 1.3162194,1.3162194 0 0 0 1.27896,1.34106"
       id="path241"
       style="fill:none;stroke-width:2.48343;stroke-linecap:butt" />
    <path
       stroke="#80671d"
       vector-effect="non-scaling-stroke"
       d="m 185.34411,132.06706 c -10.84019,-0.44702 -10.75327,14.01898 -7.12745,20.67458 q 0.42218,0.78228 0.54635,-0.0993 c 1.04304,-7.57447 0.21109,-14.81368 6.75494,-20.05372 q 0.60844,-0.48427 -0.17384,-0.52152"
       id="path243"
       style="fill:none;stroke-width:2.48343;stroke-linecap:butt" />
    <path
       stroke="#80671d"
       vector-effect="non-scaling-stroke"
       d="m 320.31868,154.29378 c 1.49006,-6.34517 2.62002,-21.65553 -7.20196,-22.0653 a 0.3104291,0.3104291 0 0 0 -0.149,0.59602 l 2.34684,1.01821 a 1.4155567,1.4279739 7.1 0 1 0.83195,1.08029 l 2.95529,19.32111 a 0.6208582,0.6208582 0 0 0 1.21688,0.0497"
       id="path245"
       style="fill:none;stroke-width:2.48343;stroke-linecap:butt" />
    <path
       stroke="#7f6957"
       vector-effect="non-scaling-stroke"
       d="m 233.89522,144.13654 c -0.13659,-6.05958 -4.11008,-9.85923 -10.21933,-9.49913 q -16.17956,0.9437 -31.45267,2.76903 a 2.9180335,2.9304507 2.2 0 0 -2.52069,2.34684 q -2.8932,14.67709 -4.17217,29.88812 c -0.55877,6.75493 2.7442,8.58026 8.99003,9.01486 q 11.68455,0.81953 23.33185,-0.0993 c 8.1705,-0.65811 14.95027,-3.3278 15.80705,-12.0074 q 0.59603,-6.03474 0.23593,-22.41298"
       id="path247"
       style="fill:none;stroke-width:2.48343;stroke-linecap:butt" />
    <path
       stroke="#776150"
       vector-effect="non-scaling-stroke"
       d="m 266.82554,137.94038 c -3.53889,5.11587 -1.81291,21.46927 -1.5149,27.88895 0.32285,6.71768 3.21605,11.33687 9.9834,12.0819 q 13.27395,1.46522 30.21096,1.00579 c 4.25909,-0.11176 7.38822,-1.45281 6.95362,-6.221 q -0.63328,-7.0157 -4.74336,-33.11658 -0.0993,-0.62086 -0.70778,-0.73261 -15.02477,-2.79386 -30.09921,-3.83691 c -4.38325,-0.31042 -7.20195,-1.25413 -10.08273,2.93046"
       id="path249"
       style="fill:none;stroke-width:2.48343;stroke-linecap:butt" />
    <path
       stroke="#7f6957"
       vector-effect="non-scaling-stroke"
       d="m 174.49151,162.87404 q -5.47597,-2.33443 -6.15892,-8.25741 a 0.94370446,0.95612163 61.6 0 0 -1.67631,-0.49669 c -8.23258,9.9089 -0.86921,28.65881 11.34928,31.57685 q 0.74503,0.17384 0.57119,-0.57119 c -1.05546,-4.4826 -3.14154,-8.74168 -2.84353,-13.42296 q 0.21109,-3.51405 0.12417,-6.82944 a 2.2475067,2.2599238 10.4 0 0 -1.36588,-1.99916"
       id="path251"
       style="fill:none;stroke-width:2.48343;stroke-linecap:butt" />
    <path
       stroke="#776150"
       vector-effect="non-scaling-stroke"
       d="m 329.17212,154.3807 q -1.05546,6.33275 -6.54385,9.68539 a 1.1920477,1.2168821 74.6 0 0 -0.5836,1.00579 c -0.14901,7.11503 -0.11176,12.69034 -2.75661,19.42044 a 0.9312873,0.91887014 87.2 0 0 1.27896,1.16722 q 14.8261,-7.54964 12.78968,-24.41215 c -0.3601,-2.99253 -1.51489,-5.07862 -3.61339,-7.05295 a 0.34768059,0.33526343 26.5 0 0 -0.57119,0.18626"
       id="path253"
       style="fill:none;stroke-width:2.48343;stroke-linecap:butt" />
    <path
       stroke="#776150"
       vector-effect="non-scaling-stroke"
       d="m 250.24862,242.02104 9.30046,-1.20446"
       id="path255"
       style="fill:none;stroke-width:2.48343;stroke-linecap:butt" />
    <path
       stroke="#7f6957"
       vector-effect="non-scaling-stroke"
       d="m 259.54908,240.81658 c 25.98912,-4.09766 47.22247,-26.42373 50.19018,-52.04034 q 0.0621,-0.62085 -0.54636,-0.63327 -12.04465,-0.32285 -24.12655,-0.23593 c -12.24332,0.0869 -20.31448,-1.15479 -26.28713,-11.59763 -3.22847,-5.64981 -3.01738,-13.59679 -3.56373,-20.23997 q -0.0497,-0.59603 -0.63328,-0.58361 l -10.45525,0.21109 q -0.78228,0.0124 -0.83195,0.7947 c -0.33526,6.39484 -0.0869,16.05539 -3.72515,21.24577 q -7.11503,10.09515 -20.46348,10.34349 -15.12411,0.27318 -30.3103,-0.74503 -0.62086,-0.0497 -0.42218,0.54636 0.28559,0.91887 0.49668,2.54552 c 3.97349,31.62651 30.80699,50.48819 61.37804,51.59331"
       id="path257"
       style="fill:none;stroke-width:2.48343;stroke-linecap:butt" />
    <path
       stroke="#f5c9a6"
       vector-effect="non-scaling-stroke"
       d="m 259.54908,240.81658 c 1.39072,-1.65148 2.11092,-2.93045 4.24667,-3.62581 16.2789,-5.24005 31.88728,-16.80043 39.11407,-32.52056 1.53972,-3.3278 2.02399,-7.62413 3.87415,-11.31203 a 1.8129059,1.8004888 12 0 0 -1.70115,-2.62002 c -8.07116,0.37251 -16.06781,0.24834 -24.0893,-0.69536 -4.7061,-0.54636 -9.6233,-0.0248 -13.68371,-2.3096 q -5.53806,-3.10429 -9.0397,-8.71685 a 0.40976641,0.40976641 0 0 0 -0.75745,0.22351 v 0.60844 q 0,0.52152 -0.45943,0.7947 -1.86258,1.10513 -1.55215,3.31539 0.0993,0.67052 -0.16142,1.29138 l -3.20363,7.84765 q -0.0745,0.19867 0.12417,0.23592 l 0.44702,0.0745 a 0.23592612,0.23592612 0 0 1 0.17384,0.32284 q -2.88078,6.79219 -2.91803,14.11832 a 0.80711566,0.7946985 2.3 0 0 0.75745,0.80711 q 2.75661,0.14901 3.16637,1.55215"
       id="path259"
       style="fill:none;stroke-width:2.48343;stroke-linecap:butt" />
    <path
       stroke="#7f6957"
       vector-effect="non-scaling-stroke"
       d="m 253.88685,210.20827 c -17.03635,1.75082 -28.16213,-1.61423 -40.34336,-13.11253 a 1.6763171,1.6390656 66.3 0 0 -1.14238,-0.45943 h -1.78807 q -1.03063,0 -0.67053,0.96854 4.6316,12.50408 17.12327,16.10506 c 22.16464,6.37001 46.35327,8.48092 58.32342,-15.7698"
       id="path261"
       style="fill:none;stroke-width:2.48343;stroke-linecap:butt" />
    <path
       stroke="#f5c9a6"
       vector-effect="non-scaling-stroke"
       d="m 285.3892,197.94011 q 1.99916,0.69536 1.77565,1.39072 c -2.83111,8.81619 -10.91469,15.55871 -18.89892,19.54462 q -2.35926,1.16721 -6.81702,0.47185 a 1.6887343,1.7508201 38.7 0 0 -0.94371,0.12417 l -4.51985,1.96192 a 1.365888,1.3783052 49.2 0 1 -1.24171,-0.0869 l -1.85016,-1.12997 a 1.1796306,1.1672134 88.9 0 0 -1.5894,1.65149 c 1.09271,1.63906 -0.0621,3.45197 -0.0869,4.92961 q -0.0993,7.57447 -0.96854,15.22344"
       id="path263"
       style="fill:none;stroke-width:2.48343;stroke-linecap:butt" />
    <path
       stroke="#776150"
       vector-effect="non-scaling-stroke"
       d="m 285.3892,197.94011 q -4.50743,-2.55793 -9.73506,3.50164 c -6.30792,7.32613 -12.77726,7.72348 -21.76729,8.76652"
       id="path265"
       style="fill:none;stroke-width:2.48343;stroke-linecap:butt" />
    <path
       stroke="#808080"
       vector-effect="non-scaling-stroke"
       d="m 241.59386,264.24777 c -9.44946,-6.17133 -17.34678,-14.66467 -26.75899,-21.23335 q -0.59602,-0.42219 -0.9437,0.22351 -2.50827,4.65643 0.0373,8.77893 c 5.45113,8.85344 12.97594,16.08023 23.77887,27.4171 q 0.45943,0.48427 0.65811,-0.14901 l 3.92382,-13.13736 q 0.37252,-1.20446 -0.69536,-1.89982"
       id="path267"
       style="fill:none;stroke-width:2.48343;stroke-linecap:butt" />
    <path
       stroke="#686c70"
       vector-effect="non-scaling-stroke"
       d="m 274.9712,262.52178 c 5.45113,-5.0662 10.65392,-11.7963 8.35675,-18.74992 q -0.14901,-0.48427 -0.58361,-0.21109 c -4.97928,3.10429 -9.78472,5.94782 -14.50325,9.72264 q -7.1647,5.72431 -14.87576,11.02644 a 0.63327536,0.63327536 0 0 0 -0.13659,0.91887 q 4.76819,5.98508 7.04053,13.27395 0.22351,0.7202 0.69537,0.13659 9.64813,-12.05707 14.00656,-16.11748"
       id="path269"
       style="fill:none;stroke-width:2.48343;stroke-linecap:butt" />
    <path
       stroke="#776150"
       vector-effect="non-scaling-stroke"
       d="m 265.01263,250.36538 c -14.72676,1.44039 -21.94113,1.3783 -36.00977,-1.20447 q -0.81954,-0.149 -0.19868,0.42219 7.51239,6.95361 16.25407,12.31782 2.21025,1.35347 4.94203,-0.48427 11.32445,-7.61172 15.28553,-10.30624 a 0.40976641,0.40976641 0 0 0 -0.27318,-0.74503"
       id="path271"
       style="fill:none;stroke-width:2.48343;stroke-linecap:butt" />
    <path
       stroke="#80671d"
       vector-effect="non-scaling-stroke"
       d="m 319.78474,299.82294 c 17.47095,7.64898 29.41626,26.48581 31.78794,44.52795 0.80712,6.05958 4.08525,11.22512 4.5571,17.21019 0.7202,9.32529 -2.04883,17.37161 -6.43209,25.96429 q -0.3601,0.68295 0.19867,1.21688 c 4.80545,4.64402 18.9486,8.10841 25.59178,10.14483 q 0.59602,0.18625 1.05546,-0.23593 2.35926,-2.14817 3.36505,-4.32117 c 13.06286,-28.37322 11.29962,-60.11149 -7.76073,-84.92099 -19.30869,-25.11992 -46.78787,-41.5975 -74.52782,-56.82094 a 0.65810969,0.67052686 30.4 0 0 -0.88161,0.23593 q -3.94866,6.30792 -8.84103,11.73422 -15.57112,17.27227 -33.74985,31.7631 -2.38409,1.89983 -5.0662,3.27813 a 1.440391,1.4279739 52.1 0 1 -1.62665,-0.21109 c -13.11252,-11.7218 -24.77224,-21.23335 -37.99652,-35.76143 q -4.70611,-5.16554 -8.20775,-10.72843 a 0.99337312,1.0057903 57.1 0 0 -1.40314,-0.29801 c -21.09676,14.16798 -46.97413,26.88316 -65.22736,46.36569 -24.0893,25.71594 -30.78215,57.03203 -18.14147,90.06169 q 2.01158,5.24004 5.01653,8.90311 0.96854,1.16721 2.42135,0.75744 l 25.29376,-7.06536 q 0.60844,-0.17384 0.49669,-0.80712 c -6.25825,-36.27054 -6.20859,-67.57421 27.59093,-89.9251 a 0.88161864,0.88161864 0 0 1 1.32864,0.98095 c -12.8766,43.16207 -13.65888,91.67593 -13.24911,132.64015 q 0,0.75745 0.70778,1.04304 c 13.14977,5.19038 31.01807,6.77977 44.14301,7.8104 q 51.77958,4.02316 103.0873,-3.71273 7.04053,-1.06788 14.85093,-3.79966 0.54635,-0.19867 0.5836,-0.78228 0.81954,-14.42874 -0.83195,-28.78298 a 1.2913851,1.2913851 0 0 0 -1.67631,-1.09271 q -13.22428,4.08524 -25.38069,-2.35926 -0.5836,-0.31043 -0.98095,0.21109 c -27.29293,35.04123 -76.01788,37.99652 -101.05088,-1.53973 -10.24416,-16.16715 -8.46851,-35.02882 -7.89732,-54.49893 q 0.2856,-10.20691 0.88162,-20.4014 c 0.32285,-5.72432 4.17217,-8.19533 9.73506,-8.45609 14.26732,-0.67053 29.56526,-2.12334 42.77713,-2.14817 q 27.9262,-0.0372 55.75306,2.84353 c 9.31288,0.96854 7.94699,16.15473 7.67381,23.02142 q -0.0372,0.83195 0.68294,0.40977 7.7359,-4.39568 16.55208,-5.58773 0.73262,-0.0993 0.65811,-0.83195 c -1.06787,-11.26237 -2.19783,-24.5984 -6.34517,-35.56276 q -0.31043,-0.81953 0.48427,-0.47185"
       id="path273"
       style="fill:none;stroke-width:2.48343;stroke-linecap:butt" />
    <path
       stroke="#424041"
       vector-effect="non-scaling-stroke"
       d="m 246.57314,285.49354 q 4.01075,1.85015 6.37001,-2.64486 0.26076,-0.48427 0.16142,-1.01821 c -0.75745,-4.42051 -0.4346,-11.2872 -3.46439,-14.75159 a 1.6390656,1.6390656 0 0 0 -2.74419,0.44702 c -1.57698,3.79965 -5.43872,15.62079 -0.32285,17.96764"
       id="path275"
       style="fill:none;stroke-width:2.48343;stroke-linecap:butt" />
    <path
       stroke="#161518"
       vector-effect="non-scaling-stroke"
       d="m 339.11827,341.48253 3.00501,0.68321 c 0.1383,-0.0473 -0.1825,-1.63566 -0.22357,-1.77592 l -0.40977,-1.44039 c -2.34896,-8.08525 -4.94814,-14.43015 -5.79881,-14.15557 h -0.0248 c -0.85703,0.24683 0.34959,6.99168 2.69453,15.06202 l 0.42218,1.44039 c 0.0421,0.14329 0.19139,0.22625 0.33527,0.18626"
       id="path277"
       style="fill:none;stroke-width:2.48343;stroke-linecap:butt"
       sodipodi:nodetypes="ccccccccc" />
    <path
       stroke="#808080"
       vector-effect="non-scaling-stroke"
       d="m 297.55802,328.44451 q -26.1133,-2.13576 -50.4261,-2.34685 c -14.20524,-0.12417 -30.17371,1.5149 -45.27298,2.24751 q -0.80712,0.0373 -0.84437,0.84437 -0.64569,13.7458 -1.34106,27.83928 -0.62085,12.52892 1.05546,22.47506 c 4.22184,25.04542 26.20022,43.12481 51.77958,41.27466 16.61416,-1.20447 31.16708,-10.72843 40.29369,-24.64807 a 0.86920148,0.88161864 43.6 0 0 -0.0124,-0.99338 c -10.93952,-15.63321 -7.16471,-31.34092 5.09103,-44.88804 a 1.3783052,1.3907224 66 0 0 0.3601,-0.93129 l -0.18626,-20.35173 q -0.0124,-0.48427 -0.49668,-0.52152"
       id="path279"
       style="fill:#ffffff;fill-opacity:1;stroke:#ffffff;stroke-width:2.48343;stroke-linecap:butt;stroke-opacity:1" />
    <path
       stroke="#161518"
       vector-effect="non-scaling-stroke"
       d="m 156.7598,384.52042 c 0.33526,-19.11002 1.60181,-38.03378 6.32033,-56.52293 q 0.22351,-0.89404 -0.44702,-0.26076 -1.39072,1.29138 -2.25992,3.01737 c -9.16387,17.98005 -7.18954,33.87402 -5.82365,53.14546 q 0.11175,1.49006 0.47185,1.67632 1.70115,0.84436 1.73841,-1.05546"
       id="path281"
       style="fill:none;stroke-width:2.48343;stroke-linecap:butt" />
    <path
       stroke="#686c70"
       vector-effect="non-scaling-stroke"
       d="m 295.11184,374.23901 q -0.99338,9.44946 5.46355,15.93122"
       id="path283"
       style="fill:none;stroke-width:2.48343;stroke-linecap:butt" />
    <path
       stroke="#161518"
       vector-effect="non-scaling-stroke"
       d="m 300.57539,390.17023 q 1.25413,4.49501 5.98507,6.61835 c 6.12166,2.74419 15.18619,1.11754 21.46928,-1.12997 a 1.7135686,1.7135686 0 0 1 2.03641,0.70778 l 3.24088,5.17796 a 2.6324388,2.6324388 0 0 0 3.29055,1.01821 q 4.86753,-2.13575 8.14566,-6.40726 a 2.0488321,2.0364149 41.4 0 0 -0.17384,-2.66969 l -4.44534,-4.53226 a 1.0678761,1.0678761 0 0 1 -0.19868,-1.20447 c 6.5066,-13.48504 13.60921,-24.78466 -0.78228,-36.5313"
       id="path285"
       style="fill:none;stroke-width:2.48343;stroke-linecap:butt" />
    <path
       stroke="#686c70"
       vector-effect="non-scaling-stroke"
       d="m 339.1431,351.21758 q -0.57119,-0.16142 -0.83195,-0.81953"
       id="path287"
       style="fill:none;stroke-width:2.48343;stroke-linecap:butt" />
    <path
       stroke="#808080"
       vector-effect="non-scaling-stroke"
       d="m 338.31115,350.39805 c -16.1299,-13.85755 -43.55941,4.79303 -43.19931,23.84096"
       id="path289"
       style="fill:none;stroke-width:2.48343;stroke-linecap:butt" />
    <path
       stroke="#e7ebef"
       vector-effect="non-scaling-stroke"
       d="m 338.31115,350.39805 q 0.0993,2.34685 -1.60181,1.71357 c -6.90395,-2.5331 -11.4983,-1.71357 -16.89976,3.45197 -8.76652,8.394 -14.59017,13.69613 -24.69774,18.67542"
       id="path291"
       style="fill:none;stroke-width:2.48343;stroke-linecap:butt" />
    <path
       stroke="#7c8087"
       vector-effect="non-scaling-stroke"
       d="m 339.1431,351.21758 c 3.72515,15.63321 -6.17133,30.1613 -18.91134,38.20762 q -8.85344,5.58772 -19.65637,0.74503"
       id="path293"
       style="fill:none;stroke-width:2.48343;stroke-linecap:butt" />
    <path
       stroke="#776150"
       vector-effect="non-scaling-stroke"
       d="m 341.19193,407.57909 c -7.89731,4.50743 8.70443,15.01235 15.37245,11.94531 q 7.27646,-3.34021 12.35508,-9.75989 0.52152,-0.65811 -0.23593,-1.00579 L 350.8649,400.7869 q -0.70777,-0.31043 -1.27896,0.21109 -5.30213,4.83028 -8.39401,6.5811"
       id="path295"
       style="fill:none;stroke-width:2.48343;stroke-linecap:butt" />
    <path
       stroke="#776150"
       vector-effect="non-scaling-stroke"
       d="m 129.54137,409.37958 c 5.01654,6.17133 16.70109,16.16715 24.10172,8.26983 a 1.5521455,1.5521455 0 0 0 0.42218,-1.03062 l 0.47185,-14.26732 q 0.0248,-0.90646 -0.84436,-0.65811 l -23.81612,6.63076 q -0.98096,0.27318 -0.33527,1.05546"
       id="path297"
       style="fill:none;stroke-width:2.48343;stroke-linecap:butt" />
    <path
       stroke="#424041"
       vector-effect="non-scaling-stroke"
       d="m 259.33799,454.51597 -3.26572,0.62086 q -0.80711,0.14901 -0.7947,0.95612 l 0.0497,31.78794 q 0,0.83195 0.83195,0.84437 l 2.75661,0.0373"
       id="path299"
       style="fill:none;stroke-width:2.48343;stroke-linecap:butt" />
    <path
       stroke="#161518"
       vector-effect="non-scaling-stroke"
       d="m 258.9158,488.76251 62.2845,-0.98096 a 0.80711566,0.80711566 0 0 0 0.76986,-0.63327 q 4.20942,-19.18452 5.51322,-38.79122 0.14901,-2.24751 -2.06125,-1.76324 c -21.64311,4.70611 -43.845,6.19617 -66.08414,7.92215"
       id="path301"
       style="fill:none;stroke-width:2.48343;stroke-linecap:butt" />
    <path
       stroke="#565458"
       vector-effect="non-scaling-stroke"
       d="m 258.9158,488.76251 0.42219,-34.24654"
       id="path303"
       style="fill:none;stroke-width:2.48343;stroke-linecap:butt" />
    <path
       stroke="#161518"
       vector-effect="non-scaling-stroke"
       d="m 179.45837,488.30307 64.46992,0.3601 q 0.5091,0 0.5091,-0.5091 l -0.17384,-33.22833 a 0.73261268,0.72019551 89.1 0 0 -0.74503,-0.73261 q -35.98494,0.75744 -71.64704,-5.92299"
       id="path305"
       style="fill:none;stroke-width:2.48343;stroke-linecap:butt" />
    <path
       stroke="#424041"
       vector-effect="non-scaling-stroke"
       d="m 171.87148,448.27014 q -1.68873,-0.75745 -3.15396,-0.76987 -0.75744,0 -0.69536,0.75745 1.10513,14.67709 4.09767,31.80036 c 0.78228,4.45776 1.46522,9.05211 7.33854,8.24499"
       id="path307"
       style="fill:none;stroke-width:2.48343;stroke-linecap:butt" />
    <path
       stroke="#565458"
       vector-effect="non-scaling-stroke"
       d="m 171.87148,448.27014 c 2.63244,12.67792 3.26572,25.50485 7.58689,40.03293"
       id="path309"
       style="fill:none;stroke-width:2.48343;stroke-linecap:butt" />
    <path
       stroke="#7f6957"
       vector-effect="non-scaling-stroke"
       d="m 214.25127,163.47006 a 2.3220097,2.3220097 0 0 1 -1.91225,-2.86836 q 2.13575,-8.33192 10.75327,-6.95361 0.63327,0.0993 0.55877,-0.54636 c -1.42798,-13.26153 -25.56694,-5.68706 -21.9908,7.74831 3.24088,12.16882 20.12822,16.67625 24.03963,1.96192 a 0.65810969,0.64569253 85.7 0 0 -0.88162,-0.76987 q -5.11587,2.22267 -10.567,1.42797"
       id="path311"
       style="fill:none;stroke-width:2.48343;stroke-linecap:butt" />
    <path
       stroke="#776150"
       vector-effect="non-scaling-stroke"
       d="m 274.1765,152.3567 q -0.8692,1.25414 0.63327,1.03063 7.49997,-1.05546 10.49251,5.88573 0.24834,0.57119 0.0248,1.14238 c -2.19784,5.61256 -7.64897,3.51406 -12.05706,3.10429 q -0.69537,-0.0745 -0.47186,0.59603 c 5.26488,15.54629 25.21926,4.24667 22.56199,-8.29467 q -1.92466,-9.07695 -11.6473,-9.35012 c -5.07862,-0.14901 -6.87911,2.06125 -9.53638,5.88573"
       id="path313"
       style="fill:none;stroke-width:2.48343;stroke-linecap:butt" />
    <path
       fill="#010101"
       d="m 291.61019,239.25202 c 29.56527,16.72592 64.04774,35.25232 85.76536,62.09823 15.57112,19.2466 24.87157,42.61571 20.79875,67.57421 -3.76655,23.13731 -14.92958,41.89551 -33.4891,56.27459 -7.26404,5.63739 -15.02476,6.07198 -22.82274,1.49005 -0.9263,-0.5351 -2.09283,0.0715 -2.17301,1.12997 l -3.78723,44.30444 c -0.0911,1.10099 0.4139,1.71771 1.51489,1.85016 6.77977,0.81953 30.27305,2.64485 32.57022,10.61666 0.10404,0.37448 0.0642,0.77334 -0.11175,1.11755 -3.6134,6.87911 -19.15969,8.14567 -26.57273,8.90311 -31.00152,3.17879 -62.08168,4.92547 -93.24049,5.24004 -29.83844,0.29802 -59.99973,-1.94949 -89.68917,-4.79303 -12.64895,-1.21688 -25.17373,-3.22018 -37.57434,-6.0099 -2.94701,-0.67053 -5.30213,-2.173 -7.06536,-4.50743 -0.26207,-0.3493 -0.25183,-0.83475 0.0249,-1.17963 1.75496,-2.15231 3.99833,-3.56372 6.7301,-4.23425 12.29299,-3.03807 24.59013,-4.83028 36.8914,-5.37664 0.8945,-0.0385 1.54954,-0.85727 1.39072,-1.7384 -2.37582,-13.54298 -4.03558,-27.17703 -4.97929,-40.90214 -0.11589,-1.68045 -0.98508,-2.29717 -2.60759,-1.85015 -12.15641,3.4023 -20.6125,-3.27814 -29.25484,-12.18124 -19.78054,-20.4014 -26.721739,-48.36486 -22.01563,-76.29106 3.92381,-23.2946 20.96016,-45.4344 39.33757,-59.54029 20.04958,-15.41385 41.66372,-29.24243 64.84243,-41.48575 1.00432,-0.52864 1.0921,-1.9332 0.16142,-2.58277 -13.5347,-9.38738 -21.38235,-21.49412 -25.59177,-37.21424 -0.67054,-2.49586 -1.60182,-3.87415 -4.1225,-4.95445 -14.01484,-6.0513 -21.38236,-16.68039 -22.10255,-31.88728 -0.38907,-8.09599 3.15809,-14.10589 10.6415,-18.02972 0.35596,-0.19039 0.53394,-0.49254 0.53394,-0.90645 0.0166,-11.53141 0.0249,-23.05453 0.0249,-34.56938 0,-6.90394 -4.79303,-11.038867 -5.4263,-17.557878 -1.11755,-11.622459 6.46934,-17.992472 16.80042,-20.873255 0.43874,-0.124168 0.6043,-0.405621 0.49669,-0.844358 -6.17137,-25.231682 21.17123,-34.097538 40.28124,-32.595061 16.44861,1.283107 32.89721,2.727638 49.34582,4.333591 12.13156,1.179631 26.80865,-1.328637 35.71175,-11.498295 7.52481,-8.617511 5.00412,-16.527245 4.01075,-26.5230614 -0.0662,-0.6539709 0.16559,-0.7822816 0.69536,-0.3849321 19.64395,14.7515915 27.25568,38.3317855 18.26565,61.5891275 -0.31466,0.809909 0.45255,1.621822 1.27896,1.353479 6.62249,-2.177142 12.90972,-5.086898 18.86168,-8.729269 0.36308,-0.211485 0.82254,0.02823 0.85678,0.447019 1.40315,16.949427 -4.35842,29.403841 -14.52808,42.354953 -0.21683,0.27321 -0.33497,0.61452 -0.33526,0.96853 l -0.28559,41.58508 c 0,0.43875 0.1697,0.74918 0.50909,0.93129 12.39233,6.53143 12.92627,21.14644 7.93458,32.63231 -3.34023,7.6738 -8.26984,15.1986 -16.71351,17.40886 -3.1167,0.81954 -4.37084,1.44039 -5.26488,4.76819 -4.29633,15.95192 -13.17046,28.80368 -26.62239,38.55529 -0.60287,0.43594 -0.54989,1.3502 0.0993,1.71358 z M 249.44151,47.990438 c -12.46684,-1.142379 -24.3749,-2.980119 -37.53709,-2.110917 -18.53882,1.229299 -33.61326,10.939521 -25.51727,31.55201 0.63813,1.644535 3.00625,1.51722 3.46439,-0.186252 l 1.50247,-5.475974 c 39.08924,23.480861 85.00791,29.652185 127.98371,13.634043 0.41875,-0.161118 0.76649,0.35579 0.45944,0.682946 -2.18543,2.367543 -4.7475,4.209425 -7.68623,5.525644 -0.6541,0.330922 -0.27267,1.322644 0.4346,1.129961 11.35757,-3.90727 19.77226,-11.183729 25.24409,-21.829378 0.35596,-0.695357 0.1697,-0.889893 -0.55877,-0.583608 -10.84433,4.552961 -22.11497,7.454439 -33.81193,8.704433 -0.50057,0.05396 -0.77053,-0.570329 -0.39735,-0.918868 14.13073,-12.466829 16.7135,-33.923692 12.18124,-51.344972 -0.092,-0.39269 -0.63395,-0.434377 -0.80711,-0.06208 -11.52314,26.535476 -39.35,23.642278 -64.95419,21.283016 z m -69.27536,54.225752 0.0744,24.67291 c 0,0.48841 0.24007,0.68294 0.72021,0.5836 l 3.83689,-0.78228 c 0.52153,-0.10761 0.79057,-0.43046 0.80713,-0.96854 0.57118,-17.54545 -0.0373,-32.818558 4.12249,-43.298643 0.17384,-0.422185 0.12003,-0.815394 -0.16142,-1.179629 -3.22847,-4.221839 -7.59103,-5.293858 -13.08769,-3.216055 -13.52229,5.091045 -10.08274,20.93534 2.8932,23.244937 0.46066,0.084 0.79523,0.48135 0.7947,0.9437 z m 75.3101,40.62897 c 1.27896,-15.67047 11.92048,-18.2284 25.52968,-17.08602 7.47513,0.62085 14.97096,1.29552 22.48749,2.024 0.53808,0.0496 0.78228,-0.19461 0.73261,-0.73262 l -2.03641,-24.0893 c -0.0414,-0.43874 -0.27733,-0.625 -0.70778,-0.55877 -15.90225,2.28476 -31.6555,2.60347 -47.25973,0.95613 -19.81779,-2.66969 -37.45016,-8.704436 -55.97657,-16.564499 -0.52152,-0.215238 -0.82781,-0.04554 -0.91887,0.509098 -1.96191,12.971791 -3.01323,26.022231 -3.15396,39.151321 0,0.59603 0.29387,0.8692 0.88161,0.81953 5.58773,-0.47185 11.28307,-0.86506 17.08602,-1.17963 11.58522,-0.63328 18.05456,-1.85015 25.45519,4.50743 4.26323,3.65065 5.96853,8.59268 5.11588,14.82609 -0.0637,0.45132 0.30251,0.84759 0.75744,0.81954 l 10.96436,-0.57119 c 0.51323,-0.0331 0.79469,-0.30217 0.84436,-0.80712 z m 58.47242,-15.73256 5.48839,0.11176 c 0.72225,0.0139 1.32074,-0.55688 1.34105,-1.27897 l 0.49669,-23.24493 c 0.0237,-1.28691 -1.13722,-2.3534 -2.59519,-2.38409 l -2.83111,-0.0621 c -1.45824,-0.0313 -2.66372,0.98532 -2.69453,2.27234 l -0.48427,23.24493 c -0.0139,0.72225 0.55688,1.32074 1.27897,1.34105 z m -128.60456,4.95445 c -10.84019,-0.44701 -10.75327,14.01898 -7.12746,20.67458 0.28146,0.52153 0.46358,0.48843 0.54635,-0.0993 1.04305,-7.57447 0.2111,-14.81368 6.75495,-20.05372 0.40562,-0.32285 0.34767,-0.49669 -0.17384,-0.52152 z m 134.97456,22.22673 c 1.49006,-6.34518 2.62002,-21.65553 -7.20194,-22.0653 -0.35615,-0.0358 -0.48011,0.46002 -0.14901,0.59602 l 2.34684,1.01821 c 0.44192,0.19336 0.75541,0.60044 0.83195,1.0803 l 2.95529,19.3211 c 0.10517,0.67126 1.05731,0.71014 1.21687,0.0497 z m -86.42345,-10.15724 c -0.13659,-6.05957 -4.11008,-9.85923 -10.21933,-9.49913 -10.78638,0.62913 -21.27061,1.55214 -31.45268,2.76903 -1.25831,0.14989 -2.27676,1.09811 -2.52068,2.34684 -1.9288,9.78473 -3.31952,19.74743 -4.17217,29.88811 -0.55877,6.75494 2.7442,8.58026 8.99002,9.01486 7.78971,0.54636 15.56699,0.51326 23.33186,-0.0993 8.17049,-0.65811 14.95026,-3.3278 15.80705,-12.00739 0.39735,-4.02316 0.47599,-11.49416 0.23593,-22.41299 z m 32.93031,-6.19617 c -3.53888,5.11588 -1.8129,21.46928 -1.51489,27.88895 0.32285,6.71769 3.21605,11.33687 9.98341,12.0819 8.84929,0.97682 18.91961,1.31208 30.21095,1.00579 4.25909,-0.11175 7.38821,-1.4528 6.95361,-6.22099 -0.42219,-4.67714 -2.00331,-15.716 -4.74336,-33.11658 -0.0662,-0.41391 -0.30213,-0.65811 -0.70778,-0.73261 -10.01651,-1.86257 -20.04957,-3.14154 -30.0992,-3.83691 -4.38325,-0.31043 -7.20195,-1.25413 -10.08274,2.93045 z m -92.33403,24.93367 c -3.65065,-1.55629 -5.70362,-4.30876 -6.15891,-8.25742 -0.0855,-0.82955 -1.13335,-1.14001 -1.67631,-0.49668 -8.23258,9.90889 -0.8692,28.65881 11.34928,31.57685 0.49669,0.11589 0.68708,-0.0745 0.57119,-0.5712 -1.05546,-4.48259 -3.14154,-8.74167 -2.84353,-13.42295 0.14073,-2.34271 0.18212,-4.61919 0.12417,-6.82944 -0.0298,-0.87727 -0.56238,-1.65681 -1.36589,-1.99916 z m 154.68061,-8.49334 c -0.70364,4.22183 -2.88492,7.4503 -6.54384,9.68539 -0.35624,0.21651 -0.57654,0.59618 -0.5836,1.00579 -0.14901,7.11503 -0.11176,12.69033 -2.75662,19.42044 -0.30851,0.80005 0.52623,1.56184 1.27897,1.16721 9.88407,-5.03309 14.14729,-13.17047 12.78967,-24.41214 -0.36009,-2.99254 -1.51489,-5.07862 -3.61338,-7.05295 -0.20499,-0.18448 -0.53088,-0.0782 -0.5712,0.18626 z m -78.92349,87.64034 9.30046,-1.20446 c 25.98912,-4.09767 47.22247,-26.42373 50.19017,-52.04033 0.0414,-0.41391 -0.14072,-0.62501 -0.54635,-0.63328 -8.02977,-0.21523 -16.07195,-0.29388 -24.12656,-0.23593 -12.24332,0.0869 -20.31447,-1.15479 -26.28713,-11.59763 -3.22846,-5.6498 -3.01737,-13.59679 -3.56372,-20.23998 -0.0331,-0.39735 -0.24423,-0.59188 -0.63328,-0.58361 l -10.45525,0.21109 c -0.52153,0.008 -0.79885,0.27317 -0.83196,0.7947 -0.33526,6.39485 -0.0869,16.0554 -3.72514,21.24577 -4.74335,6.73011 -11.56451,10.17794 -20.46348,10.34351 -10.08274,0.18211 -20.18618,-0.0662 -30.31031,-0.74503 -0.4139,-0.0331 -0.55463,0.14898 -0.42218,0.54635 0.1904,0.61258 0.35596,1.46109 0.49669,2.54552 3.97349,31.62652 30.80698,50.48819 61.37804,51.59331 z m -8.65476,22.22672 c -9.44946,-6.17132 -17.34678,-14.66467 -26.75899,-21.23335 -0.39735,-0.28145 -0.71192,-0.20695 -0.94371,0.22351 -1.67217,3.10429 -1.65974,6.03061 0.0373,8.77894 5.45114,8.85343 12.97594,16.08023 23.77887,27.4171 0.30629,0.32285 0.52565,0.27318 0.6581,-0.14901 l 3.92383,-13.13736 c 0.24835,-0.80297 0.0166,-1.43625 -0.69536,-1.89983 z m 33.37733,-1.72598 c 5.45114,-5.06621 10.65393,-11.79631 8.35676,-18.74992 -0.0993,-0.32285 -0.29388,-0.39321 -0.58361,-0.21109 -4.97928,3.10429 -9.78472,5.94783 -14.50325,9.72264 -4.77647,3.81621 -9.73506,7.49169 -14.87576,11.02644 -0.30433,0.20813 -0.36723,0.63122 -0.13659,0.91887 3.17879,3.99005 5.52564,8.4147 7.04053,13.27395 0.14901,0.48013 0.38079,0.52566 0.69536,0.13659 6.43209,-8.03805 11.10095,-13.41054 14.00656,-16.11748 z m -9.95856,-12.1564 c -14.72676,1.44039 -21.94113,1.3783 -36.00978,-1.20447 -0.54635,-0.0993 -0.61257,0.0414 -0.19867,0.42218 5.00825,4.63574 10.42628,8.74169 16.25407,12.31784 1.4735,0.90231 3.12084,0.74088 4.94203,-0.48428 7.54963,-5.07448 12.64481,-8.50989 15.28552,-10.30624 0.34836,-0.24038 0.14801,-0.78681 -0.27317,-0.74503 z m 54.7721,49.45755 c 17.47095,7.64899 29.41627,26.48582 31.78794,44.52796 0.80713,6.05957 4.08526,11.22511 4.55711,17.21019 0.72019,9.32529 -2.04884,17.37161 -6.4321,25.96429 -0.24006,0.45529 -0.17383,0.86092 0.19868,1.21688 4.80544,4.64402 18.9486,8.10841 25.59177,10.14482 0.39735,0.12417 0.74918,0.0455 1.05547,-0.23592 1.57284,-1.43212 2.69452,-2.87251 3.36505,-4.32117 13.06285,-28.37322 11.29961,-60.1115 -7.76073,-84.92099 -19.30869,-25.11992 -46.78787,-41.5975 -74.52782,-56.82094 -0.30556,-0.16876 -0.69245,-0.0652 -0.88162,0.23593 -2.63244,4.20528 -5.57945,8.11668 -8.84102,11.73421 -10.38075,11.51485 -21.6307,22.10256 -33.74985,31.76311 -1.5894,1.26655 -3.27813,2.35926 -5.0662,3.27813 -0.52997,0.27761 -1.1792,0.19336 -1.62665,-0.21109 -13.11252,-11.7218 -24.77224,-21.23335 -37.99652,-35.76143 -3.13741,-3.4437 -5.87332,-7.01984 -8.20775,-10.72843 -0.29509,-0.47618 -0.93015,-0.61106 -1.40314,-0.29802 -21.09676,14.16799 -46.97413,26.88317 -65.22736,46.36569 -24.0893,25.71595 -30.78215,57.03204 -18.14148,90.06169 1.34105,3.49336 3.01323,6.46106 5.01653,8.90311 0.6457,0.77815 1.45282,1.03063 2.42136,0.75745 l 25.29376,-7.06537 c 0.40563,-0.11589 0.57119,-0.38492 0.49669,-0.80711 -6.25826,-36.27054 -6.20859,-67.57421 27.59093,-89.92511 0.68342,-0.44479 1.55251,0.19688 1.32864,0.98096 -12.8766,43.16207 -13.65888,91.67592 -13.24911,132.64015 0,0.50496 0.23592,0.85264 0.70777,1.04303 13.14978,5.19039 31.01808,6.77978 44.14302,7.81041 34.51972,2.68211 68.88215,1.44453 103.08729,-3.71274 4.69369,-0.71191 9.644,-1.97846 14.85093,-3.79965 0.36424,-0.13245 0.55878,-0.39321 0.58361,-0.78228 0.54636,-9.61917 0.26904,-19.21349 -0.83195,-28.78298 -0.0871,-0.81263 -0.89766,-1.34099 -1.67632,-1.09272 -8.81618,2.7235 -17.27641,1.93708 -25.38068,-2.35926 -0.38907,-0.20695 -0.71606,-0.13659 -0.98095,0.2111 -27.29293,35.04123 -76.01788,37.99651 -101.05089,-1.53974 -10.24416,-16.16715 -8.4685,-35.02882 -7.89731,-54.49892 0.1904,-6.80461 0.48427,-13.60508 0.88162,-20.40141 0.32285,-5.72431 4.17217,-8.19533 9.73505,-8.45608 14.26732,-0.67053 29.56527,-2.12334 42.77714,-2.14818 18.61747,-0.0249 37.20182,0.92298 55.75305,2.84354 9.31288,0.96854 7.94699,16.15473 7.67382,23.02142 -0.0249,0.55463 0.20278,0.69122 0.68294,0.40976 5.15727,-2.93045 10.67463,-4.79302 16.55208,-5.58772 0.48841,-0.0662 0.70778,-0.34352 0.65811,-0.83195 -1.06788,-11.26237 -2.19784,-24.5984 -6.34517,-35.56276 -0.20695,-0.54635 -0.0455,-0.70364 0.48426,-0.47186 z m -73.21159,-14.3294 c 2.67383,1.23344 4.79716,0.35182 6.37,-2.64485 0.17385,-0.32285 0.22766,-0.66225 0.16143,-1.01821 -0.75745,-4.42051 -0.4346,-11.28721 -3.46439,-14.7516 -0.79877,-0.91112 -2.27589,-0.6705 -2.74419,0.44703 -1.57699,3.79965 -5.43872,15.62079 -0.32285,17.96763 z m 95.51638,56.66615 0.006,0.007 c 0.1383,-0.0473 -0.15426,-1.63702 -0.19533,-1.77728 l -0.40976,-1.4404 c -2.34897,-8.08529 -4.94816,-14.4302 -5.79882,-14.15556 h -0.0249 c -0.85705,0.24678 0.34957,6.99165 2.69452,15.06202 l 1.17754,0.64739 c 0.008,5.8e-4 1.42815,0.91878 1.42815,0.91878 z M 297.55801,328.4445 c -17.40887,-1.42383 -34.21757,-2.20612 -50.4261,-2.34685 -14.20524,-0.12416 -30.17371,1.51491 -45.27297,2.24751 -0.53808,0.0249 -0.81954,0.30632 -0.84437,0.84437 -0.43047,9.16387 -0.87749,18.44363 -1.34106,27.83928 -0.41391,8.35261 -0.0621,15.8443 1.05547,22.47507 4.22183,25.04542 26.20021,43.12481 51.77957,41.27466 16.61416,-1.20447 31.16707,-10.72844 40.29369,-24.64808 0.20224,-0.30456 0.1973,-0.6998 -0.0124,-0.99337 -10.93952,-15.63321 -7.1647,-31.34092 5.09104,-44.88805 0.23209,-0.25587 0.36048,-0.58792 0.3601,-0.93129 l -0.18625,-20.35173 c -0.008,-0.32285 -0.17383,-0.49669 -0.4967,-0.52152 z M 156.7598,384.52041 c 0.33526,-19.11001 1.60181,-38.03377 6.32033,-56.52292 0.14901,-0.59603 0,-0.68295 -0.44702,-0.26077 -0.92715,0.86093 -1.68045,1.86672 -2.25992,3.01738 -9.16386,17.98005 -7.18953,33.87402 -5.82365,53.14545 0.0745,0.99337 0.23178,1.55215 0.47185,1.67633 1.1341,0.56291 1.71357,0.21109 1.73841,-1.05547 z m 138.35204,-10.2814 c -0.66225,6.29963 1.15893,11.61004 5.46355,15.93122 0.83609,2.99667 2.83111,5.20279 5.98507,6.61835 6.12166,2.74419 15.18619,1.11754 21.46928,-1.12996 0.76077,-0.27414 1.60964,0.0209 2.03641,0.70777 l 3.24089,5.17796 c 0.69178,1.10948 2.09303,1.54308 3.29054,1.01821 3.24501,-1.42384 5.96023,-3.55959 8.14566,-6.40726 0.61422,-0.80528 0.54015,-1.94279 -0.17385,-2.66969 l -4.44534,-4.53227 c -0.3118,-0.32033 -0.39108,-0.80097 -0.19868,-1.20447 6.5066,-13.48503 13.60922,-24.78466 -0.78227,-36.53128 -0.38079,-0.10762 -0.65811,-0.3808 -0.83195,-0.81954 -16.1299,-13.85755 -43.55941,4.79302 -43.19931,23.84096 z m 46.08009,33.34008 c -7.89732,4.50743 8.70443,15.01235 15.37245,11.94531 4.85097,-2.22681 8.96932,-5.4801 12.35507,-9.75989 0.34769,-0.43874 0.26905,-0.774 -0.23592,-1.00579 L 350.8649,400.7869 c -0.47185,-0.20695 -0.89818,-0.13659 -1.27897,0.21109 -3.53475,3.22019 -6.33275,5.41389 -8.394,6.5811 z m -211.65056,1.80048 c 5.01654,6.17134 16.70109,16.16715 24.10171,8.26984 0.26338,-0.27948 0.41381,-0.64669 0.42219,-1.03063 l 0.47185,-14.26732 c 0.0166,-0.6043 -0.26486,-0.82367 -0.84437,-0.65811 l -23.81612,6.63077 c -0.65397,0.18212 -0.76572,0.53394 -0.33526,1.05545 z m 129.79662,45.13639 -3.26572,0.62087 c -0.53807,0.0993 -0.80297,0.41804 -0.7947,0.95612 l 0.0497,31.78794 c 0,0.55463 0.27731,0.83609 0.83194,0.84437 l 2.75662,0.0373 62.28449,-0.98095 c 0.37189,-0.008 0.68984,-0.27 0.76986,-0.63328 2.80628,-12.78967 4.64402,-25.72008 5.51323,-38.79121 0.0993,-1.49834 -0.58775,-2.08609 -2.06126,-1.76324 -21.64311,4.7061 -43.845,6.19616 -66.08414,7.92215 z m -79.87963,33.78711 64.46992,0.3601 c 0.33941,0 0.50911,-0.1697 0.50911,-0.50911 l -0.17384,-33.22833 c 2e-5,-0.41452 -0.33777,-0.74668 -0.74503,-0.73261 -23.98996,0.50496 -47.87231,-1.46937 -71.64704,-5.92299 -1.12582,-0.50497 -2.17714,-0.76159 -3.15396,-0.76986 -0.50497,0 -0.73675,0.25248 -0.69536,0.75745 0.73675,9.78473 2.10264,20.38485 4.09766,31.80036 0.78229,4.45776 1.46524,9.05211 7.33854,8.24499 z"
       id="path319"
       style="stroke-width:1.24171"
       sodipodi:nodetypes="cccccccccccccccccccccccccccccccsccccccccccccccccccccccsccccccccccccccsscccccccccccccccccccccccccccccccccccccscscccssscccccssscccccccsscccccccccccccccccccccccccccccccccccccccccsccccccssccccccccccccccccccccccccccccccccccccccccccccccccccccccccccccccccccccccccccccccccscccccccccccsscccccccccccccccccccccccccccccccccccccccccccccsccccccccccc" />
    <path
       fill="#5d1d1a"
       d="m 191.35401,71.769305 c 7.20196,-24.958497 37.38808,-22.599236 57.2928,-22.624071 q 0.64569,0 0.7947,-0.620858 0.0621,-0.26076 0,-0.533938 c 25.60419,2.359262 53.43105,5.25246 64.95419,-21.283018 a 0.42218357,0.43460074 49.5 0 1 0.80711,0.06208 c 4.53226,17.42128 1.94949,38.878145 -12.18124,51.344974 a 0.52152088,0.53393804 21.3 0 0 0.39735,0.918868 q 17.54544,-1.874991 33.81193,-8.704433 1.09271,-0.459428 0.55877,0.583608 -8.20774,15.968473 -25.24409,21.829378 a 0.60844103,0.60844103 0 0 1 -0.4346,-1.129961 q 4.40809,-1.974329 7.68623,-5.525644 a 0.42218357,0.42218357 0 0 0 -0.45944,-0.682946 c -42.9758,16.018146 -88.89447,9.846818 -127.98371,-13.634043 z"
       id="path321"
       style="stroke-width:1.24171" />
    <path
       fill="#e15052"
       d="m 249.44151,47.990438 q 0.0621,0.273178 0,0.533938 -0.14901,0.620858 -0.7947,0.620858 c -19.90472,0.02483 -50.09084,-2.334426 -57.2928,22.624071 l -1.50247,5.475974 a 1.8253231,1.8253231 0 0 1 -3.46439,0.186252 c -8.09599,-20.612489 6.97845,-30.322711 25.51727,-31.55201 13.16219,-0.869202 25.07025,0.968538 37.53709,2.110917 z"
       id="path323"
       style="stroke-width:1.24171" />
    <path
       fill="#5d1d1a"
       d="m 179.37145,101.27249 c -12.97594,-2.309597 -16.41549,-18.153892 -2.8932,-23.244937 q 8.245,-3.116704 13.08769,3.216055 0.42219,0.546352 0.16143,1.179629 c -4.15975,10.480085 -3.55132,25.753193 -4.1225,43.298643 q -0.0249,0.80712 -0.80712,0.96854 l -3.8369,0.78228 q -0.7202,0.14901 -0.7202,-0.5836 l -0.0744,-24.67291 a 0.96853878,0.95612162 5.4 0 0 -0.7947,-0.9437 z"
       id="path325"
       style="stroke-width:1.24171" />
    <path
       fill="#fcd1ad"
       d="m 254.22211,103.35858 q 1.42798,1.85015 -2.6821,2.09849 -0.5712,0.0249 -0.44703,0.58361 c 1.2293,5.58772 0.99338,10.93953 1.34107,16.639 q 0,0.13659 0.0993,0.2235 0.17385,0.16144 0.31043,0.33527 0.27318,0.3601 0.2856,0.80712 l 0.44702,17.39645 q 0.0124,0.59602 0.59602,0.72019 0.94371,0.21109 1.30381,0.68295 l -0.19868,2.02399 q -0.0745,0.75745 -0.84437,0.80712 l -10.96435,0.57119 a 0.7201955,0.7201955 0 0 1 -0.75745,-0.81954 q 1.27897,-9.35012 -5.11587,-14.82609 c -7.40063,-6.35758 -13.86998,-5.14071 -25.45519,-4.50743 q -8.70443,0.47185 -17.08602,1.17963 -0.88161,0.0746 -0.88161,-0.81953 0.21109,-19.69363 3.15396,-39.151321 0.13659,-0.831955 0.91886,-0.509098 c 18.52641,7.860063 36.15879,13.894809 55.97658,16.564499 z"
       id="path327"
       style="stroke-width:1.24171" />
    <path
       fill="#5d1d1a"
       d="m 313.94867,127.1126 a 1.3162194,1.3162194 0 0 1 -1.27897,-1.34105 l 0.48427,-23.24493 a 2.6448559,2.3344268 1.2 0 1 2.69453,-2.27233 l 2.83111,0.0621 a 2.6448559,2.3344268 1.2 0 1 2.59519,2.38408 l -0.49669,23.24493 a 1.3162194,1.3162194 0 0 1 -1.34105,1.27897 z"
       id="path329"
       style="stroke-width:1.24171" />
    <path
       fill="#edc19f"
       d="m 255.47625,142.84516 q -0.3601,-0.47186 -1.30381,-0.68295 -0.5836,-0.12417 -0.59602,-0.72019 l -0.44701,-17.39645 q -0.0124,-0.44702 -0.2856,-0.80712 -0.13659,-0.17383 -0.31044,-0.33527 -0.0993,-0.0869 -0.0993,-0.2235 c -0.34769,-5.69947 -0.11177,-11.05128 -1.34106,-16.639 q -0.12417,-0.55878 0.44702,-0.58361 4.11008,-0.24834 2.68211,-2.09849 23.40635,2.47101 47.25972,-0.95613 0.6457,-0.0993 0.70778,0.55877 l 2.03641,24.0893 q 0.0746,0.80711 -0.73261,0.73262 -11.27479,-1.09272 -22.48749,-2.024 c -13.6092,-1.14238 -24.25072,1.41555 -25.52967,17.08602 z"
       id="path331"
       style="stroke-width:1.24171" />
    <path
       fill="#ffcc38"
       d="m 178.21665,152.74163 c -3.62581,-6.6556 -3.71273,-21.12159 7.12746,-20.67458 q 0.78227,0.0373 0.17384,0.52153 c -6.54385,5.24004 -5.7119,12.47924 -6.75495,20.05371 q -0.12416,0.88163 -0.54635,0.0993 z"
       id="path333"
       style="stroke-width:1.24171" />
    <path
       fill="#ffcc38"
       d="m 320.31867,154.29378 a 0.6208582,0.6208582 0 0 1 -1.21687,-0.0497 l -2.95529,-19.32109 a 1.4155567,1.4279738 7.1 0 0 -0.83195,-1.08031 l -2.34684,-1.0182 a 0.31042909,0.31042909 0 0 1 0.14901,-0.59603 c 9.82196,0.40977 8.692,15.72013 7.20194,22.0653 z"
       id="path335"
       style="stroke-width:1.24171" />
    <path
       fill="#fcd1ad"
       d="m 223.67589,134.63741 c 6.10925,-0.3601 10.08274,3.43956 10.21933,9.49913 q 0.36009,16.37824 -0.23593,22.41298 c -0.85679,8.6796 -7.63656,11.34929 -15.80705,12.00739 q -11.6473,0.91888 -23.33186,0.0993 c -6.24582,-0.4346 -9.54879,-2.25992 -8.99002,-9.01487 q 1.27897,-15.21101 4.17217,-29.8881 a 2.9180336,2.9304507 2.2 0 1 2.52068,-2.34685 q 15.27311,-1.82532 31.45268,-2.76903 z m -9.42462,28.83265 a 2.3220097,2.3220097 0 0 1 -1.91225,-2.86836 q 2.13575,-8.33192 10.75326,-6.95361 0.63328,0.0993 0.55878,-0.54636 c -1.42798,-13.26153 -25.56695,-5.68706 -21.9908,7.74831 3.24088,12.16883 20.12822,16.67625 24.03963,1.96192 a 0.65810969,0.64569252 85.7 0 0 -0.88162,-0.76987 q -5.11587,2.22267 -10.567,1.42797 z"
       id="path337"
       style="stroke-width:1.24171" />
    <path
       fill="#edc19f"
       d="m 266.82553,137.94037 c 2.88079,-4.18458 5.69949,-3.24088 10.08274,-2.93045 q 15.07444,1.04305 30.0992,3.83691 0.60845,0.11175 0.70778,0.73261 4.11008,26.10087 4.74336,33.11658 c 0.4346,4.76819 -2.69452,6.10924 -6.95361,6.22099 q -16.93701,0.45944 -30.21095,-1.00579 c -6.76736,-0.74503 -9.66056,-5.36421 -9.98341,-12.0819 -0.29801,-6.41967 -2.02399,-22.77307 1.51489,-27.88895 z m 7.35097,14.41633 q -0.86921,1.25413 0.63327,1.03062 7.49997,-1.05546 10.49251,5.88574 0.24834,0.57119 0.0249,1.14238 c -2.19784,5.61256 -7.64897,3.51406 -12.05706,3.10429 q -0.69536,-0.0746 -0.47186,0.59603 c 5.26488,15.54628 25.21926,4.24667 22.56199,-8.29467 q -1.92466,-9.07694 -11.6473,-9.35012 c -5.07862,-0.14901 -6.87911,2.06124 -9.53638,5.88573 z"
       id="path339"
       style="stroke-width:1.24171" />
    <path
       fill="#010101"
       d="m 214.25127,163.47006 q 5.45113,0.7947 10.567,-1.42797 a 0.65810969,0.64569252 85.7 0 1 0.88162,0.76987 c -3.91141,14.71433 -20.79875,10.20691 -24.03963,-1.96192 -3.57615,-13.43537 20.56282,-21.00984 21.9908,-7.74831 q 0.0744,0.64569 -0.55878,0.54636 -8.61751,-1.37831 -10.75326,6.95361 a 2.3220097,2.3220097 0 0 0 1.91225,2.86836 z"
       id="path341"
       style="stroke-width:1.24171" />
    <path
       fill="#010101"
       d="m 274.1765,152.3567 c 2.65727,-3.82449 4.45776,-6.03474 9.53638,-5.88573 q 9.72264,0.27318 11.6473,9.35012 c 2.65727,12.54134 -17.29712,23.84095 -22.56199,8.29467 q -0.2235,-0.67054 0.47186,-0.59603 c 4.40808,0.40977 9.85922,2.50827 12.05706,-3.10429 q 0.22351,-0.57119 -0.0249,-1.14238 -2.99253,-6.9412 -10.49251,-5.88574 -1.50247,0.22351 -0.63326,-1.03062 z"
       id="path343"
       style="stroke-width:1.24171" />
    <path
       fill="#fcd1ad"
       d="m 174.4915,162.87404 a 2.2475066,2.2599239 10.4 0 1 1.36589,1.99916 q 0.0869,3.31538 -0.12417,6.82944 c -0.29801,4.68128 1.78807,8.94036 2.84353,13.42295 q 0.17384,0.74503 -0.57119,0.5712 c -12.21848,-2.91804 -19.58186,-21.66796 -11.34928,-31.57685 a 0.94370445,0.95612162 61.6 0 1 1.67631,0.49668 q 0.68294,5.92299 6.15891,8.25742 z"
       id="path345"
       style="stroke-width:1.24171" />
    <path
       fill="#edc19f"
       d="m 329.17211,154.3807 a 0.34768059,0.33526342 26.5 0 1 0.5712,-0.18626 c 2.09849,1.97433 3.25329,4.06041 3.61338,7.05295 q 2.03643,16.86251 -12.78967,24.41214 a 0.93128729,0.91887012 87.2 0 1 -1.27897,-1.16721 c 2.64486,-6.73011 2.60761,-12.30541 2.75662,-19.42044 a 1.1920478,1.2168821 74.6 0 1 0.5836,-1.00579 q 5.48838,-3.35264 6.54384,-9.68539 z"
       id="path347"
       style="stroke-width:1.24171" />
    <path
       fill="#fcd1ad"
       d="m 259.54908,240.81658 c 1.39072,-1.65149 2.11091,-2.93045 4.24666,-3.62581 16.27891,-5.24005 31.88728,-16.80043 39.11407,-32.52056 1.53973,-3.3278 2.024,-7.62414 3.87416,-11.31204 a 1.812906,1.8004888 12 0 0 -1.70116,-2.62002 c -8.07115,0.37252 -16.06781,0.24835 -24.08929,-0.69536 -4.70611,-0.54635 -9.6233,-0.0248 -13.68372,-2.30959 q -5.53806,-3.10429 -9.03969,-8.71685 a 0.40976641,0.40976641 0 0 0 -0.75744,0.22351 v 0.60845 q 0,0.52151 -0.45944,0.79469 -1.86258,1.10513 -1.55215,3.31538 0.0993,0.67053 -0.16142,1.29139 l -3.20363,7.84765 q -0.0744,0.19867 0.12417,0.23592 l 0.44702,0.0746 a 0.23592612,0.23592612 0 0 1 0.17384,0.32284 q -2.88078,6.7922 -2.91804,14.11832 a 0.80711565,0.79469849 2.3 0 0 0.75746,0.80712 q 2.7566,0.14901 3.16637,1.55214 c -17.03635,1.75083 -28.16212,-1.61422 -40.34336,-13.11253 a 1.6763171,1.6390656 66.3 0 0 -1.14239,-0.45943 h -1.78806 q -1.03064,0 -0.67053,0.96854 4.6316,12.50409 17.12327,16.10506 c 22.16464,6.37001 46.35326,8.48092 58.32342,-15.7698 q 1.99916,0.69536 1.77565,1.39072 c -2.83111,8.81619 -10.91469,15.55871 -18.89892,19.54462 q -2.35926,1.16722 -6.81703,0.47186 a 1.6887343,1.7508202 38.7 0 0 -0.9437,0.12416 l -4.51985,1.96192 a 1.365888,1.3783052 49.2 0 1 -1.24171,-0.0869 l -1.85017,-1.12996 a 1.1796305,1.1672134 88.9 0 0 -1.58939,1.65148 c 1.09271,1.63907 -0.0621,3.45198 -0.0869,4.92961 q -0.0993,7.57448 -0.96854,15.22345 c -30.57107,-1.10512 -57.40455,-19.96679 -61.37804,-51.59331 q -0.21109,-1.62665 -0.4967,-2.54552 -0.19866,-0.59602 0.42219,-0.54635 15.1862,1.0182 30.3103,0.74503 13.34845,-0.24835 20.46349,-10.34351 c 3.63822,-5.19037 3.38988,-14.85092 3.72514,-21.24577 q 0.0497,-0.78227 0.83195,-0.7947 l 10.45526,-0.21109 q 0.5836,-0.0124 0.63327,0.58361 c 0.54636,6.64319 0.33526,14.59018 3.56372,20.23998 5.97266,10.44284 14.04382,11.68455 26.28714,11.59763 q 12.08191,-0.0869 24.12655,0.23593 0.60845,0.0124 0.54635,0.63328 c -2.96769,25.6166 -24.20105,47.94266 -50.19017,52.04033 z"
       id="path349"
       style="stroke-width:1.24171" />
    <path
       fill="#edc19f"
       d="m 259.54908,240.81658 -9.30046,1.20446 q 0.8692,-7.64897 0.96854,-15.22345 c 0.0248,-1.47763 1.17963,-3.29054 0.0869,-4.92961 a 1.1796305,1.1672134 88.9 0 1 1.5894,-1.65148 l 1.85016,1.12996 a 1.365888,1.3783052 49.2 0 0 1.24172,0.0869 l 4.51985,-1.96192 a 1.6887343,1.7508202 38.7 0 1 0.9437,-0.12416 q 4.45776,0.69536 6.81702,-0.47186 c 7.98423,-3.98591 16.06781,-10.72843 18.89893,-19.54462 q 0.2235,-0.69536 -1.77565,-1.39072 -4.50744,-2.55793 -9.73507,3.50165 c -6.30792,7.32612 -12.77726,7.72347 -21.76728,8.76651 q -0.40977,-1.40313 -3.16638,-1.55214 a 0.80711565,0.79469849 2.3 0 1 -0.75745,-0.80711 q 0.0373,-7.32613 2.91804,-14.11833 a 0.23592612,0.23592612 0 0 0 -0.17384,-0.32284 l -0.44703,-0.0746 q -0.19866,-0.0373 -0.12416,-0.23592 l 3.20362,-7.84765 q 0.26077,-0.62086 0.16143,-1.29139 -0.31043,-2.21025 1.55214,-3.31538 0.45944,-0.27318 0.45944,-0.79469 v -0.60845 a 0.40976641,0.40976641 0 0 1 0.75745,-0.22351 q 3.50163,5.61256 9.03969,8.71685 c 4.06041,2.28476 8.97761,1.76324 13.68371,2.30959 8.02149,0.94371 16.01815,1.06788 24.0893,0.69536 a 1.812906,1.8004888 12 0 1 1.70115,2.62002 c -1.85016,3.6879 -2.33443,7.98424 -3.87416,11.31204 -7.22678,15.72013 -22.83516,27.28051 -39.11406,32.52056 -2.13575,0.69536 -2.85594,1.97432 -4.24666,3.62581 z"
       id="path351"
       style="stroke-width:1.24171" />
    <path
       fill="#010101"
       d="m 253.88685,210.20827 c 8.99003,-1.04305 15.45937,-1.44039 21.76729,-8.76652 q 5.22762,-6.05958 9.73506,-3.50164 c -11.97016,24.25072 -36.15878,22.13981 -58.32342,15.76979 q -12.49167,-3.60097 -17.12327,-16.10505 -0.36011,-0.96854 0.67053,-0.96854 h 1.78806 a 1.6763171,1.6390656 66.3 0 1 1.14239,0.45943 c 12.18124,11.4983 23.30701,14.86335 40.34336,13.11253 z"
       id="path353"
       style="stroke-width:1.24171" />
    <path
       fill="#ffffff"
       d="m 241.59386,264.24776 q 1.06788,0.69537 0.69536,1.89983 l -3.92383,13.13736 q -0.19867,0.63328 -0.6581,0.14901 c -10.80293,-11.33687 -18.32774,-18.56367 -23.77887,-27.4171 q -2.54552,-4.1225 -0.0373,-8.77894 0.34769,-0.64569 0.94371,-0.22351 c 9.41221,6.56868 17.30953,15.06203 26.75899,21.23335 z"
       id="path355"
       style="stroke-width:1.24171" />
    <path
       fill="#ced6de"
       d="m 274.97119,262.52178 q -4.35842,4.06041 -14.00656,16.11748 -0.47185,0.58361 -0.69536,-0.13659 -2.27234,-7.28887 -7.04053,-13.27395 a 0.63327536,0.63327536 0 0 1 0.13659,-0.91887 q 7.71105,-5.30213 14.87576,-11.02644 c 4.71853,-3.77481 9.52397,-6.61835 14.50325,-9.72264 q 0.4346,-0.27318 0.58361,0.21109 c 2.29717,6.95361 -2.90562,13.68371 -8.35676,18.74992 z"
       id="path357"
       style="stroke-width:1.24171" />
    <path
       fill="#edc19f"
       d="m 229.00285,249.16091 c 14.06865,2.58277 21.28302,2.64486 36.00978,1.20447 a 0.40976641,0.40976641 0 0 1 0.27317,0.74503 q -3.96107,2.69452 -15.28552,10.30624 -2.73178,1.83774 -4.94203,0.48428 -8.74169,-5.36423 -16.25407,-12.31784 -0.62085,-0.57119 0.19867,-0.42218 z"
       id="path359"
       style="stroke-width:1.24171" />
    <path
       fill="#ffcc38"
       d="m 319.30047,300.29479 c 4.14733,10.96436 5.27729,24.30039 6.34517,35.56276 q 0.0745,0.73261 -0.65811,0.83195 -8.81618,1.19205 -16.55208,5.58772 -0.7202,0.42219 -0.68294,-0.40976 c 0.27317,-6.86669 1.63906,-22.05288 -7.67382,-23.02142 q -27.82685,-2.88078 -55.75305,-2.84354 c -13.21187,0.0249 -28.50982,1.47765 -42.77714,2.14818 -5.56288,0.26075 -9.4122,2.73177 -9.73505,8.45608 q -0.59602,10.1945 -0.88162,20.40141 c -0.57119,19.4701 -2.34685,38.33177 7.89731,54.49892 25.03301,39.53625 73.75796,36.58097 101.05089,1.53974 q 0.39734,-0.52153 0.98095,-0.2111 12.15641,6.44451 25.38068,2.35926 a 1.291385,1.291385 0 0 1 1.67632,1.09272 q 1.65149,14.35423 0.83195,28.78298 -0.0373,0.5836 -0.58361,0.78228 -7.81039,2.73178 -14.85093,3.79965 -51.30771,7.7359 -103.08729,3.71274 c -13.12494,-1.03063 -30.99324,-2.62002 -44.14302,-7.81041 q -0.70777,-0.28559 -0.70777,-1.04303 c -0.40977,-40.96423 0.37251,-89.47808 13.24911,-132.64015 a 0.88161864,0.88161864 0 0 0 -1.32864,-0.98096 c -33.79952,22.3509 -33.84919,53.65457 -27.59093,89.92511 q 0.11175,0.63328 -0.49669,0.80711 l -25.29376,7.06537 q -1.45281,0.40977 -2.42136,-0.75745 -3.00495,-3.66307 -5.01653,-8.90311 c -12.64067,-33.02965 -5.94782,-64.34574 18.14148,-90.06169 18.25323,-19.48252 44.1306,-32.1977 65.22736,-46.36569 a 0.99337311,1.0057903 57.1 0 1 1.40314,0.29802 q 3.50164,5.56288 8.20775,10.72843 c 13.22428,14.52808 24.884,24.03963 37.99652,35.76143 a 1.440391,1.4279738 52.1 0 0 1.62665,0.21109 q 2.6821,-1.37831 5.0662,-3.27813 18.17873,-14.49083 33.74985,-31.76311 4.89236,-5.42629 8.84102,-11.73421 a 0.65810969,0.67052685 30.4 0 1 0.88162,-0.23593 c 27.73995,15.22344 55.21913,31.70102 74.52782,56.82094 19.06034,24.80949 20.82358,56.54777 7.76073,84.92099 q -1.00579,2.17299 -3.36505,4.32117 -0.45944,0.42218 -1.05547,0.23592 c -6.64317,-2.03641 -20.78633,-5.5008 -25.59177,-10.14482 q -0.55877,-0.53394 -0.19868,-1.21688 c 4.38326,-8.59268 7.15229,-16.639 6.4321,-25.96429 -0.47185,-5.98508 -3.74998,-11.15062 -4.55711,-17.21019 -2.37167,-18.04214 -14.31699,-36.87897 -31.78794,-44.52796 q -0.79468,-0.34767 -0.48426,0.47186 z"
       id="path361"
       style="stroke-width:1.24171" />
    <path
       fill="#827e80"
       d="m 246.57314,285.49353 c -5.11587,-2.34684 -1.25414,-14.16798 0.32285,-17.96763 a 1.6390656,1.6390656 0 0 1 2.74419,-0.44703 c 3.02979,3.46439 2.70694,10.33109 3.46439,14.7516 q 0.0993,0.53394 -0.16143,1.01821 -2.35926,4.49501 -6.37,2.64485 z"
       id="path363"
       style="stroke-width:1.24171" />
    <path
       fill="#ffffff"
       d="m 338.31115,350.39805 q 0.0993,2.34684 -1.60182,1.71356 c -6.90394,-2.53309 -11.49829,-1.71356 -16.89976,3.45198 -8.76651,8.394 -14.59016,13.69613 -24.69773,18.67542 -0.3601,-19.04794 27.06941,-37.69851 43.19931,-23.84096 z"
       id="path373"
       style="stroke-width:1.24171" />
    <path
       fill="#ced6de"
       d="m 338.31115,350.39805 q 0.26076,0.65811 0.83195,0.81954 c 3.72515,15.6332 -6.17134,30.16128 -18.91134,38.20761 q -8.85344,5.58771 -19.65637,0.74503 -6.45693,-6.48177 -5.46355,-15.93122 c 10.10757,-4.97929 15.93122,-10.28142 24.69773,-18.67542 5.40147,-5.16554 9.99582,-5.98507 16.89976,-3.45198 q 1.70115,0.63328 1.60182,-1.71356 z"
       id="path375"
       style="stroke-width:1.24171" />
    <path
       fill="#2a292f"
       d="m 339.1431,351.21759 c 14.39149,11.74662 7.28887,23.04625 0.78227,36.53128 a 1.0678761,1.0678761 0 0 0 0.19868,1.20447 l 4.44534,4.53227 a 2.048832,2.0364149 41.4 0 1 0.17385,2.66969 q -3.27814,4.2715 -8.14566,6.40726 a 2.6324388,2.6324388 0 0 1 -3.29054,-1.01821 l -3.24089,-5.17796 a 1.7135686,1.7135686 0 0 0 -2.03641,-0.70777 c -6.28309,2.2475 -15.34762,3.87415 -21.46928,1.12996 q -4.73094,-2.12334 -5.98507,-6.61835 10.80293,4.84268 19.65637,-0.74503 c 12.74,-8.04633 22.63649,-22.57441 18.91134,-38.20761 z"
       id="path377"
       style="stroke-width:1.24171" />
    <path
       fill="#edc19f"
       d="m 356.56438,419.5244 c -6.66802,3.06704 -23.26977,-7.43788 -15.37245,-11.94531 q 3.09187,-1.75082 8.394,-6.5811 0.57119,-0.52152 1.27897,-0.21109 l 17.81863,7.97182 q 0.75745,0.34768 0.23592,1.00579 -5.07862,6.41968 -12.35507,9.75989 z"
       id="path379"
       style="stroke-width:1.24171" />
    <path
       fill="#edc19f"
       d="m 153.64308,417.64941 c -7.40062,7.89731 -19.08517,-2.0985 -24.10171,-8.26984 q -0.64569,-0.78227 0.33526,-1.05545 l 23.81612,-6.63077 q 0.8692,-0.24834 0.84437,0.65811 l -0.47185,14.26732 a 1.5521455,1.5521455 0 0 1 -0.42219,1.03063 z"
       id="path381"
       style="stroke-width:1.24171" />
    <path
       fill="#2a292f"
       d="m 258.9158,488.7625 0.42219,-34.24654 c 22.23913,-1.72598 44.44103,-3.21604 66.08414,-7.92214 q 2.21025,-0.48427 2.06126,1.76323 -1.30381,19.60671 -5.51323,38.79122 a 0.80711565,0.80711565 0 0 1 -0.76986,0.63328 z"
       id="path383"
       style="stroke-width:1.24171" />
    <path
       fill="#827e80"
       d="m 171.87148,448.27013 c 2.63244,12.67793 3.26572,25.50486 7.58688,40.03294 -5.8733,0.80712 -6.55625,-3.78723 -7.33854,-8.24499 q -2.99253,-17.12327 -4.09766,-31.80036 -0.0621,-0.75745 0.69536,-0.75745 1.46523,0.0124 3.15396,0.76986 z"
       id="path385"
       style="stroke-width:1.24171" />
    <path
       fill="#2a292f"
       d="m 171.87148,448.27013 q 35.6621,6.68043 71.64704,5.92299 a 0.73261267,0.7201955 89.1 0 1 0.74503,0.73261 l 0.17384,33.22833 q 0,0.50911 -0.50911,0.50911 l -64.46992,-0.3601 c -4.32116,-14.52808 -4.95444,-27.35501 -7.58688,-40.03294 z"
       id="path387"
       style="stroke-width:1.24171" />
    <path
       fill="#827e80"
       d="m 259.33799,454.51596 -0.42219,34.24654 -2.75661,-0.0373 q -0.83195,-0.0124 -0.83195,-0.84437 l -0.0497,-31.78793 q -0.0124,-0.80712 0.7947,-0.95613 z"
       id="path389"
       style="stroke-width:1.24171" />
    <path
       d="m 232.54944,374.41322 h -12.88606 a 4.3222578,4.3222578 0 0 0 -4.26659,5.00693 34.539099,34.539099 0 0 0 13.22001,22.02319 4.3361737,4.3361737 0 0 0 6.38453,-1.31644 c 2.48539,-4.40575 4.83444,-8.5471 6.3958,-11.28852 a 16.943917,16.943917 0 0 1 -8.84769,-14.42516 z m 16.95785,-17.45879 a 16.893822,16.893822 0 0 1 7.99604,2.00388 l 7.03861,-10.62057 a 4.3139082,4.3139082 0 0 0 0.52603,-3.65708 4.308342,4.308342 0 0 0 -2.48816,-2.73029 34.333143,34.333143 0 0 0 -13.07252,-2.56329 34.483433,34.483433 0 0 0 -12.28211,2.24323 4.3166916,4.3166916 0 0 0 -2.15975,6.27884 c 2.7442,4.54769 5.16277,8.56658 6.61001,10.97122 a 16.857639,16.857639 0 0 1 7.83185,-1.92594 z m 16.85483,15.02909 a 16.955051,16.955051 0 0 1 -7.83736,16.31772 l 6.06728,10.67344 c 0.69857,1.23016 1.95936,2.04005 3.37323,2.16808 1.40828,0.12802 2.65508,-0.57332 3.69879,-1.53631 7.445,-6.85773 11.02135,-15.62748 11.64479,-22.21245 0.11134,-1.16057 -0.0361,-2.3295 -0.74592,-3.25353 a 3.9799281,3.9799281 0 0 0 -2.96127,-1.53351 c -5.28244,-0.2338 -10.20027,-0.47315 -13.23954,-0.62344 z m -16.85483,-9.98599 a 11.900821,11.900821 0 0 0 -7.49517,2.64678 11.923082,11.923082 0 0 0 -4.44185,9.28464 c 0,0.16421 0.013,0.32287 0.0161,0.48427 a 11.939786,11.939786 0 0 0 15.0625,11.03248 11.939786,11.939786 0 0 0 8.79203,-11.51675 11.939786,11.939786 0 0 0 -11.93424,-11.93142 z"
       fill=""
       id="path1945"
       style="fill:#010101;fill-opacity:1;stroke-width:0.087387"
       inkscape:transform-center-x="0.69390625"
       inkscape:transform-center-y="-3.1543698" />
  </g>
</svg>
